<?xml version="1.0" encoding="UTF-8" standalone="no"?>
<svg
   viewBox="-178.3 -167.1 1280 640"
   version="1.1"
   id="svg6"
   sodipodi:docname="awesome-arabic-speakers.svg"
   inkscape:version="1.1.2 (0a00cf5339, 2022-02-04)"
   width="1280"
   height="640"
   inkscape:export-filename="/home/ahmed/git/sahaba-ai/awesome-arabic-speakers/static/img/awesome-arabic-speakers.png"
   inkscape:export-xdpi="96"
   inkscape:export-ydpi="96"
   xmlns:inkscape="http://www.inkscape.org/namespaces/inkscape"
   xmlns:sodipodi="http://sodipodi.sourceforge.net/DTD/sodipodi-0.dtd"
   xmlns="http://www.w3.org/2000/svg"
   xmlns:svg="http://www.w3.org/2000/svg">
  <defs
     id="defs10" />
  <sodipodi:namedview
     id="namedview8"
     pagecolor="#ffffff"
     bordercolor="#000000"
     borderopacity="0.25"
     inkscape:pageshadow="2"
     inkscape:pageopacity="0.0"
     inkscape:pagecheckerboard="0"
     showgrid="false"
     inkscape:zoom="0.53270848"
     inkscape:cx="523.73861"
     inkscape:cy="459.91384"
     inkscape:window-width="1920"
     inkscape:window-height="1173"
     inkscape:window-x="0"
     inkscape:window-y="0"
     inkscape:window-maximized="1"
     inkscape:current-layer="g47743"
     fit-margin-top="0"
     fit-margin-left="0"
     fit-margin-right="0"
     fit-margin-bottom="0" />
  <g
     id="g47743"
     transform="translate(206.57363,438.93754)">
    <g
       id="g122"
       transform="matrix(0.66614653,0,0,0.66614653,40.793725,-420.40064)">
      <path
         d="m 79.899997,305.1 c 4,0 7.3,1.4 10.1,4.2 2.8,2.8 4.2,6.2 4.2,10.1 V 369 h -50.7 c -4,0 -7.3,-1.4 -10.1,-4.2 -2.8,-2.8 -4.2,-6.2 -4.2,-10.1 v -23.6 h 53.1 v -11.7 c 0,-0.7 -0.2,-1.2 -0.7,-1.7 -0.5,-0.5 -1,-0.7 -1.7,-0.7 h -50.7 v -11.9 z m 2.4,52 V 343 h -41.2 v 11.7 c 0,0.7 0.2,1.2 0.7,1.7 0.5,0.5 1,0.7 1.7,0.7 z M 197,305.1 h 12.7 l -24,63.9 H 176 l -21.5,-47.5 -20.3,47.5 -0.2,-0.1 0.1,0.1 h -9.6 L 99.399997,305.1 H 112 l 17.3,42.4 18.4,-42.4 h 13.6 l 19.5,42.4 z m 67.2,0 c 4,0 7.3,1.4 10.1,4.2 2.8,2.8 4.2,6.2 4.2,10.1 V 343 h -53.1 v 11.7 c 0,0.7 0.2,1.2 0.7,1.7 0.5,0.5 1,0.7 1.7,0.7 h 50.7 V 369 h -50.7 c -4,0 -7.3,-1.4 -10.1,-4.2 -2.8,-2.8 -4.2,-6.2 -4.2,-10.1 v -35.3 c 0,-4 1.4,-7.3 4.2,-10.1 2.8,-2.8 6.2,-4.2 10.1,-4.2 z m -38.8,26 h 41.2 v -11.7 c 0,-0.7 -0.2,-1.2 -0.7,-1.7 -0.5,-0.5 -1,-0.7 -1.7,-0.7 h -36.4 c -0.7,0 -1.2,0.2 -1.7,0.7 -0.5,0.5 -0.7,1 -0.7,1.7 z m 129,-11.6 v 2.4 h -11.9 v -2.4 c 0,-0.7 -0.2,-1.2 -0.7,-1.7 -0.5,-0.5 -1,-0.7 -1.7,-0.7 h -36.4 c -0.7,0 -1.2,0.2 -1.7,0.7 -0.5,0.5 -0.7,1 -0.7,1.7 v 9.3 c 0,0.7 0.2,1.2 0.7,1.7 0.5,0.5 1,0.7 1.7,0.7 h 36.4 c 4,0 7.3,1.4 10.1,4.2 2.8,2.8 4.2,6.2 4.2,10.1 v 9.3 c 0,4 -1.4,7.3 -4.2,10.1 -2.8,2.8 -6.2,4.2 -10.1,4.2 h -36.4 c -4,0 -7.3,-1.4 -10.1,-4.2 -2.8,-2.8 -4.2,-6.2 -4.2,-10.1 v -2.4 h 11.9 v 2.4 c 0,0.7 0.2,1.2 0.7,1.7 0.5,0.5 1,0.7 1.7,0.7 h 36.4 c 0.7,0 1.2,-0.2 1.7,-0.7 0.5,-0.5 0.7,-1 0.7,-1.7 v -9.3 c 0,-0.7 -0.2,-1.2 -0.7,-1.7 -0.5,-0.5 -1,-0.7 -1.7,-0.7 h -36.4 c -4,0 -7.3,-1.4 -10.1,-4.2 -2.8,-2.8 -4.2,-6.2 -4.2,-10.1 v -9.3 c 0,-4 1.4,-7.3 4.2,-10.1 2.8,-2.8 6.2,-4.2 10.1,-4.2 h 36.4 c 4,0 7.3,1.4 10.1,4.2 2.8,2.7 4.2,6.1 4.2,10.1 z m 25.2,-14.4 H 416 c 4,0 7.3,1.4 10.1,4.2 2.8,2.8 4.2,6.2 4.2,10.1 v 35.3 c 0,4 -1.4,7.3 -4.2,10.1 -2.8,2.8 -6.2,4.2 -10.1,4.2 h -36.4 c -4,0 -7.3,-1.4 -10.1,-4.2 -2.8,-2.8 -4.2,-6.2 -4.2,-10.1 v -35.3 c 0,-4 1.4,-7.3 4.2,-10.1 2.8,-2.8 6.2,-4.2 10.1,-4.2 z M 416,317 h -36.4 c -0.7,0 -1.2,0.2 -1.7,0.7 -0.5,0.5 -0.7,1 -0.7,1.7 v 35.3 c 0,0.7 0.2,1.2 0.7,1.7 0.5,0.5 1,0.7 1.7,0.7 H 416 c 0.7,0 1.2,-0.2 1.7,-0.7 0.5,-0.5 0.7,-1 0.7,-1.7 v -35.3 c 0,-0.7 -0.2,-1.2 -0.7,-1.7 -0.5,-0.4 -1,-0.7 -1.7,-0.7 z m 107.5,-11.9 c 4,0 7.3,1.4 10.1,4.2 2.8,2.8 4.2,6.2 4.2,10.1 V 369 H 526 v -49.6 c 0,-0.7 -0.2,-1.2 -0.7,-1.7 -0.5,-0.5 -1.1,-0.7 -1.8,-0.7 h -25.2 c -0.7,0 -1.2,0.2 -1.7,0.7 -0.5,0.5 -0.7,1 -0.7,1.7 V 369 H 484 v -49.6 c 0,-0.7 -0.2,-1.2 -0.7,-1.7 -0.5,-0.5 -1,-0.7 -1.7,-0.7 h -25.3 c -0.7,0 -1.2,0.2 -1.7,0.7 -0.5,0.5 -0.7,1 -0.7,1.7 V 369 H 442 v -63.9 z m 76.5,0 c 4,0 7.3,1.4 10.1,4.2 2.8,2.8 4.2,6.2 4.2,10.1 V 343 h -53.1 v 11.7 c 0,0.7 0.2,1.2 0.7,1.7 0.5,0.5 1,0.7 1.7,0.7 h 50.7 V 369 h -50.7 c -4,0 -7.3,-1.4 -10.1,-4.2 -2.8,-2.8 -4.2,-6.2 -4.2,-10.1 v -35.3 c 0,-4 1.4,-7.3 4.2,-10.1 2.8,-2.8 6.2,-4.2 10.1,-4.2 z m -38.8,26 h 41.2 v -11.7 c 0,-0.7 -0.2,-1.2 -0.7,-1.7 -0.5,-0.5 -1,-0.7 -1.7,-0.7 h -36.4 c -0.7,0 -1.2,0.2 -1.7,0.7 -0.5,0.5 -0.7,1 -0.7,1.7 z"
         fill="#494368"
         id="path2" />
      <path
         fill="#FC60A8"
         d="m 614.2,73 -150,-137.6 -21.1,23 125,114.6 H 75.4 l 125,-114.7 -21.1,-23 L 29.3,73 h -0.1 v 90.7 c 0,41 39.5,74.4 88,74.4 h 92.5 c 48.5,0 88,-33.4 88,-74.4 v -59.6 h 48 v 59.6 c 0,41 39.5,74.4 88,74.4 h 92.5 c 48.5,0 88,-33.4 88,-74.4 z"
         id="path4"
         style="fill:#188400;fill-opacity:1" />
      <g
         aria-label="ุก"
         id="text2255"
         style="font-size:224.971px;font-family:'Noto Naskh Arabic';-inkscape-font-specification:'Noto Naskh Arabic';text-align:center;letter-spacing:0.286789px;text-anchor:middle;fill:#ffffff;stroke-width:6.74914;stop-color:#000000"
         transform="translate(0,24)">
        <path
           d="m 125.78794,161.22696 -3.14959,-9.44878 q 2.92462,-1.12486 5.84924,-2.24971 3.1496,-1.12486 6.74913,-2.47469 3.59954,-1.34982 8.09896,-2.92462 -1.34983,-0.89988 -2.47468,-1.5748 -1.12486,-0.89988 -1.79977,-1.57479 -2.92462,-3.1496 -4.94936,-6.74913 -1.79977,-3.59954 -1.79977,-7.42404 0,-6.29919 2.92462,-13.04832 3.1496,-6.74913 8.32393,-12.37341 5.17433,-5.849243 11.69849,-8.548895 2.47468,-1.124855 4.94936,-1.574797 2.47468,-0.674913 5.17433,-0.674913 7.87399,0 12.82335,4.274449 4.94936,4.049478 4.94936,12.373406 0,2.47468 -0.89988,5.3993 -0.67491,2.69965 -1.79977,4.72439 -2.24971,-0.67491 -3.59953,-1.12485 -1.34983,-0.67491 -3.1496,-1.5748 0.89989,-1.34982 1.12486,-2.69965 0.44994,-1.34983 0.67491,-2.92462 -1.34983,-1.34983 -4.27445,-2.02474 -2.92462,-0.67492 -4.94936,-0.67492 -6.52416,0 -13.72323,4.04948 -6.9741,4.04948 -11.69849,10.34867 1.79976,4.27445 4.49942,7.42404 2.69965,2.92462 6.52416,5.17433 2.47468,1.34983 6.07421,2.69966 3.82451,1.34982 6.9741,2.24971 1.34983,-0.44995 2.92463,-0.89989 1.57479,-0.44994 3.14959,-0.67491 5.3993,-1.5748 11.02358,-2.47468 5.84924,-1.12486 10.79861,-2.02474 2.69965,-0.44994 4.72439,-0.67491 2.24971,-0.22497 3.8245,-0.44995 1.79977,1.79977 2.47468,3.82451 0.89989,2.02474 0.89989,4.04948 0,4.94936 -3.1496,7.64901 -3.14959,2.69965 -7.42404,3.1496 -8.09895,0.89988 -16.87282,1.79976 -8.77387,0.89989 -14.84809,2.02474 -4.04948,0.67492 -8.77387,1.5748 -4.49942,0.89988 -11.02358,2.24971 -6.52415,1.34983 -16.87282,3.82451 z"
           id="path4292" />
      </g>
      <g
         aria-label="ุก"
         id="text2255-6"
         style="font-size:224.971px;font-family:'Noto Naskh Arabic';-inkscape-font-specification:'Noto Naskh Arabic';text-align:center;letter-spacing:0.286789px;text-anchor:middle;fill:#ffffff;stroke-width:6.74914;stop-color:#000000"
         transform="translate(0,24)">
        <path
           d="m 441.39181,161.22696 -3.1496,-9.44878 q 2.92463,-1.12486 5.84925,-2.24971 3.14959,-1.12486 6.74913,-2.47469 3.59953,-1.34982 8.09895,-2.92462 -1.34982,-0.89988 -2.47468,-1.5748 -1.12485,-0.89988 -1.79976,-1.57479 -2.92463,-3.1496 -4.94937,-6.74913 -1.79976,-3.59954 -1.79976,-7.42404 0,-6.29919 2.92462,-13.04832 3.14959,-6.74913 8.32393,-12.37341 5.17433,-5.849243 11.69849,-8.548895 2.47468,-1.124855 4.94936,-1.574797 2.47468,-0.674913 5.17433,-0.674913 7.87399,0 12.82335,4.274449 4.94936,4.049478 4.94936,12.373406 0,2.47468 -0.89988,5.3993 -0.67492,2.69965 -1.79977,4.72439 -2.24971,-0.67491 -3.59954,-1.12485 -1.34982,-0.67491 -3.14959,-1.5748 0.89988,-1.34982 1.12485,-2.69965 0.44995,-1.34983 0.67492,-2.92462 -1.34983,-1.34983 -4.27445,-2.02474 -2.92463,-0.67492 -4.94936,-0.67492 -6.52416,0 -13.72324,4.04948 -6.9741,4.04948 -11.69849,10.34867 1.79977,4.27445 4.49942,7.42404 2.69966,2.92462 6.52416,5.17433 2.47468,1.34983 6.07422,2.69966 3.82451,1.34982 6.9741,2.24971 1.34983,-0.44995 2.92462,-0.89989 1.5748,-0.44994 3.1496,-0.67491 5.3993,-1.5748 11.02357,-2.47468 5.84925,-1.12486 10.79861,-2.02474 2.69965,-0.44994 4.72439,-0.67491 2.24971,-0.22497 3.82451,-0.44995 1.79977,1.79977 2.47468,3.82451 0.89989,2.02474 0.89989,4.04948 0,4.94936 -3.1496,7.64901 -3.14959,2.69965 -7.42404,3.1496 -8.09896,0.89988 -16.87283,1.79976 -8.77386,0.89989 -14.84808,2.02474 -4.04948,0.67492 -8.77387,1.5748 -4.49942,0.89988 -11.02358,2.24971 -6.52416,1.34983 -16.87282,3.82451 z"
           id="path4295" />
      </g>
      <g
         aria-label="Arabic Speakers"
         id="text30291"
         style="font-size:74.5775px;font-family:'Noto Naskh Arabic';-inkscape-font-specification:'Noto Naskh Arabic';text-align:center;letter-spacing:0.0950698px;text-anchor:middle;fill:#4d4d4d;stroke-width:2.23733;stop-color:#000000"
         transform="translate(0,24)">
        <path
           d="m 84.349152,430.30719 q -1.044085,-3.05768 -2.162748,-6.04078 -1.118662,-2.9831 -2.162747,-6.11535 h -21.77663 q -1.044085,3.13225 -2.162747,6.18993 -1.044085,2.9831 -2.08817,5.9662 h -9.769653 q 2.908523,-8.2781 5.518735,-15.28839 2.610213,-7.01028 5.07127,-13.27479 2.535635,-6.26451 4.996693,-11.9324 2.461057,-5.66789 5.07127,-11.18663 h 8.874722 q 2.610212,5.51874 5.07127,11.18663 2.461057,5.66789 4.922115,11.9324 2.535635,6.26451 5.145847,13.27479 2.68479,7.01029 5.593313,15.28839 z m -15.21381,-41.68882 q -1.715282,3.95261 -3.952607,9.6205 -2.162748,5.66789 -4.549228,12.30528 h 17.00367 q -2.38648,-6.63739 -4.623805,-12.37986 -2.237325,-5.74247 -3.87803,-9.54592 z"
           style="font-weight:500;font-family:Ubuntu;-inkscape-font-specification:'Ubuntu Medium'"
           id="path4220" />
        <path
           d="m 122.92607,399.43211 q -1.11866,-0.37289 -3.13226,-0.74578 -1.93901,-0.44746 -4.54922,-0.44746 -1.49155,0 -3.20683,0.29831 -1.64071,0.29831 -2.31191,0.52204 v 31.24797 h -9.02387 V 393.1676 q 2.61021,-0.96951 6.48824,-1.78986 3.95261,-0.89493 8.72557,-0.89493 0.89493,0 2.08816,0.14915 1.19324,0.0746 2.38648,0.29831 1.19324,0.14916 2.31191,0.44747 1.11866,0.22373 1.78986,0.44746 z"
           style="font-weight:500;font-family:Ubuntu;-inkscape-font-specification:'Ubuntu Medium'"
           id="path4222" />
        <path
           d="m 144.57403,423.9681 q 4.17634,0 6.33908,-0.44746 v -9.99339 q -0.74577,-0.22373 -2.16274,-0.44746 -1.41698,-0.22373 -3.13226,-0.22373 -1.49155,0 -3.05768,0.22373 -1.49155,0.22373 -2.75936,0.82035 -1.19324,0.59662 -1.93902,1.71528 -0.74577,1.04409 -0.74577,2.68479 0,3.20684 2.01359,4.47465 2.01359,1.19324 5.44416,1.19324 z m -0.74578,-33.63445 q 4.47465,0 7.53233,1.11866 3.05768,1.11867 4.84754,3.13226 1.86443,2.01359 2.61021,4.92211 0.82035,2.83395 0.82035,6.26451 v 23.64107 q -2.08817,0.44746 -6.33909,1.04408 -4.17634,0.6712 -9.47134,0.6712 -3.50514,0 -6.41366,-0.6712 -2.90853,-0.67119 -4.9967,-2.16274 -2.01359,-1.49155 -3.20683,-3.87803 -1.11866,-2.38648 -1.11866,-5.89162 0,-3.35599 1.26782,-5.66789 1.34239,-2.31191 3.57972,-3.72888 2.23732,-1.49155 5.14584,-2.08817 2.9831,-0.6712 6.18994,-0.6712 1.49155,0 3.13225,0.22374 1.64071,0.14915 3.50514,0.59662 v -1.49155 q 0,-1.56613 -0.37288,-2.9831 -0.37289,-1.41698 -1.3424,-2.46106 -0.89493,-1.11866 -2.46106,-1.71528 -1.49155,-0.59662 -3.80345,-0.59662 -3.13225,0 -5.74247,0.44746 -2.61021,0.44747 -4.25091,1.04409 l -1.11867,-7.3086 q 1.71529,-0.59662 4.9967,-1.19324 3.28141,-0.59662 7.01028,-0.59662 z"
           style="font-weight:500;font-family:Ubuntu;-inkscape-font-specification:'Ubuntu Medium'"
           id="path4224" />
        <path
           d="m 196.6495,410.69331 q 0,-5.74247 -2.3119,-9.09846 -2.23733,-3.35598 -7.15944,-3.35598 -2.23733,0 -4.25092,0.67119 -1.93901,0.6712 -3.13225,1.49155 v 22.44783 q 0.9695,0.22373 2.46105,0.44746 1.56613,0.14916 3.72888,0.14916 4.99669,0 7.83064,-3.35599 2.83394,-3.43056 2.83394,-9.39676 z m 9.24761,0.14915 q 0,4.69839 -1.41697,8.50184 -1.3424,3.72887 -3.95261,6.41366 -2.53563,2.68479 -6.18993,4.10176 -3.6543,1.41698 -8.2781,1.41698 -4.47465,0 -8.57642,-0.6712 -4.02718,-0.6712 -6.71197,-1.49155 V 373.9266 l 9.02388,-1.49155 v 20.2105 q 1.56612,-0.82035 3.80345,-1.49155 2.3119,-0.67119 5.07127,-0.67119 4.10176,0 7.30859,1.49155 3.28141,1.41697 5.44416,4.10176 2.16275,2.68479 3.28141,6.48824 1.19324,3.72888 1.19324,8.2781 z"
           style="font-weight:500;font-family:Ubuntu;-inkscape-font-specification:'Ubuntu Medium'"
           id="path4226" />
        <path
           d="m 224.41274,430.30719 h -9.02388 v -39.00403 h 9.02388 z m 0.96951,-50.41439 q 0,2.53564 -1.64071,4.02719 -1.6407,1.49155 -3.87803,1.49155 -2.3119,0 -3.95261,-1.49155 -1.6407,-1.49155 -1.6407,-4.02719 0,-2.61021 1.6407,-4.10176 1.64071,-1.49155 3.95261,-1.49155 2.23733,0 3.87803,1.49155 1.64071,1.49155 1.64071,4.10176 z"
           style="font-weight:500;font-family:Ubuntu;-inkscape-font-specification:'Ubuntu Medium'"
           id="path4228" />
        <path
           d="m 233.82993,410.84246 q 0,-4.32549 1.34239,-8.05437 1.3424,-3.80345 3.80345,-6.56282 2.53564,-2.75936 6.11536,-4.32549 3.57972,-1.56613 8.05437,-1.56613 5.51873,0 10.44085,2.01359 l -1.93902,7.38318 q -1.56612,-0.6712 -3.57972,-1.11867 -1.93901,-0.44746 -4.17634,-0.44746 -5.295,0 -8.05437,3.35599 -2.75936,3.28141 -2.75936,9.32218 0,5.81705 2.61021,9.24761 2.61021,3.35599 8.80014,3.35599 2.31191,0 4.54923,-0.44746 2.23733,-0.44747 3.87803,-1.11867 l 1.26782,7.45775 q -1.49155,0.74578 -4.54923,1.3424 -2.9831,0.59662 -6.18993,0.59662 -4.99669,0 -8.72557,-1.49155 -3.6543,-1.56613 -6.11535,-4.25092 -2.38648,-2.75937 -3.57972,-6.48824 -1.19324,-3.80345 -1.19324,-8.20353 z"
           style="font-weight:500;font-family:Ubuntu;-inkscape-font-specification:'Ubuntu Medium'"
           id="path4230" />
        <path
           d="m 301.73628,423.2969 q 5.07127,0 7.38317,-1.71528 2.3119,-1.71528 2.3119,-4.84753 0,-1.86444 -0.82035,-3.20684 -0.74577,-1.34239 -2.23732,-2.38648 -1.41698,-1.11866 -3.50515,-2.01359 -2.08817,-0.96951 -4.77296,-1.86444 -2.68479,-0.9695 -5.22042,-2.08817 -2.46106,-1.19324 -4.40007,-2.90852 -1.86444,-1.71528 -3.05768,-4.10176 -1.11866,-2.38648 -1.11866,-5.74247 0,-7.01028 4.84753,-10.96289 4.84754,-4.02719 13.20022,-4.02719 4.84754,0 8.57641,1.11867 3.80346,1.04408 5.9662,2.3119 l -2.90852,7.6069 q -2.53563,-1.41697 -5.59331,-2.16274 -2.9831,-0.74578 -6.18993,-0.74578 -3.80346,0 -5.9662,1.56613 -2.08817,1.56613 -2.08817,4.40007 0,1.71528 0.67119,2.9831 0.74578,1.19324 2.0136,2.16275 1.34239,0.96951 3.05767,1.78986 1.78986,0.82035 3.87803,1.56613 3.6543,1.34239 6.48825,2.75936 2.90852,1.3424 4.84753,3.28141 2.0136,1.86444 3.05768,4.47465 1.04409,2.53564 1.04409,6.18994 0,7.01028 -4.9967,10.88831 -4.92211,3.80345 -14.46803,3.80345 -3.20683,0 -5.89162,-0.44746 -2.61022,-0.37289 -4.69839,-0.96951 -2.01359,-0.59662 -3.50514,-1.19324 -1.49155,-0.6712 -2.38648,-1.19324 l 2.75937,-7.68148 q 2.01359,1.11866 5.44416,2.23732 3.43056,1.11866 8.2781,1.11866 z"
           style="font-weight:500;font-family:Ubuntu;-inkscape-font-specification:'Ubuntu Medium'"
           id="path4232" />
        <path
           d="m 355.00504,410.99162 q 0,-6.04078 -2.75937,-9.39677 -2.68479,-3.35598 -8.72557,-3.35598 -1.26781,0 -2.68479,0.14915 -1.34239,0.0746 -2.68479,0.44747 v 22.29867 q 1.19324,0.82035 3.13226,1.56613 2.01359,0.67119 4.25092,0.67119 4.92211,0 7.15944,-3.35598 2.3119,-3.35599 2.3119,-9.02388 z m 9.24761,-0.14916 q 0,4.47465 -1.19324,8.20353 -1.11866,3.72887 -3.28141,6.41366 -2.16275,2.68479 -5.44416,4.17634 -3.20683,1.49155 -7.30859,1.49155 -2.75937,0 -5.07127,-0.6712 -2.31191,-0.67119 -3.80346,-1.49155 v 15.13924 h -9.02387 v -51.53305 q 2.75936,-0.74578 6.78655,-1.41698 4.02718,-0.67119 8.50183,-0.67119 4.62381,0 8.27811,1.41697 3.65429,1.41697 6.18993,4.10176 2.61021,2.61021 3.95261,6.41367 1.41697,3.72887 1.41697,8.42725 z"
           style="font-weight:500;font-family:Ubuntu;-inkscape-font-specification:'Ubuntu Medium'"
           id="path4234" />
        <path
           d="m 371.50705,410.99162 q 0,-5.14585 1.49155,-9.02388 1.56613,-3.87803 4.10176,-6.41366 2.53564,-2.61022 5.81705,-3.87803 3.28141,-1.3424 6.71197,-1.3424 8.05437,0 12.52902,4.99669 4.54923,4.9967 4.54923,14.9155 0,0.74578 -0.0746,1.71529 0,0.89493 -0.0746,1.6407 h -25.72924 q 0.37289,4.69838 3.28141,7.3086 2.9831,2.53563 8.57641,2.53563 3.28141,0 5.9662,-0.59662 2.75937,-0.59662 4.3255,-1.26782 l 1.19324,7.38317 q -0.74578,0.37289 -2.08817,0.82036 -1.26782,0.37288 -2.9831,0.67119 -1.64071,0.37289 -3.57972,0.59662 -1.93902,0.22374 -3.95261,0.22374 -5.14585,0 -8.9493,-1.49155 -3.80345,-1.56613 -6.26451,-4.25092 -2.46106,-2.75937 -3.6543,-6.41366 -1.19324,-3.72888 -1.19324,-8.12895 z m 26.1767,-4.02719 q 0,-1.86443 -0.52204,-3.50514 -0.52204,-1.71528 -1.56613,-2.90852 -0.9695,-1.26782 -2.46105,-1.93902 -1.41698,-0.74577 -3.43057,-0.74577 -2.08817,0 -3.6543,0.82035 -1.56612,0.74578 -2.68479,2.01359 -1.04408,1.26782 -1.6407,2.90853 -0.59662,1.6407 -0.82035,3.35598 z"
           style="font-weight:500;font-family:Ubuntu;-inkscape-font-specification:'Ubuntu Medium'"
           id="path4236" />
        <path
           d="m 430.07083,423.9681 q 4.17634,0 6.33909,-0.44746 v -9.99339 q -0.74578,-0.22373 -2.16275,-0.44746 -1.41697,-0.22373 -3.13225,-0.22373 -1.49155,0 -3.05768,0.22373 -1.49155,0.22373 -2.75937,0.82035 -1.19324,0.59662 -1.93901,1.71528 -0.74578,1.04409 -0.74578,2.68479 0,3.20684 2.01359,4.47465 2.0136,1.19324 5.44416,1.19324 z m -0.74577,-33.63445 q 4.47464,0 7.53232,1.11866 3.05768,1.11867 4.84754,3.13226 1.86444,2.01359 2.61021,4.92211 0.82035,2.83395 0.82035,6.26451 v 23.64107 q -2.08817,0.44746 -6.33908,1.04408 -4.17634,0.6712 -9.47134,0.6712 -3.50515,0 -6.41367,-0.6712 -2.90852,-0.67119 -4.99669,-2.16274 -2.01359,-1.49155 -3.20683,-3.87803 -1.11867,-2.38648 -1.11867,-5.89162 0,-3.35599 1.26782,-5.66789 1.3424,-2.31191 3.57972,-3.72888 2.23733,-1.49155 5.14585,-2.08817 2.9831,-0.6712 6.18993,-0.6712 1.49155,0 3.13226,0.22374 1.6407,0.14915 3.50514,0.59662 v -1.49155 q 0,-1.56613 -0.37289,-2.9831 -0.37289,-1.41698 -1.3424,-2.46106 -0.89493,-1.11866 -2.46105,-1.71528 -1.49155,-0.59662 -3.80345,-0.59662 -3.13226,0 -5.74247,0.44746 -2.61021,0.44747 -4.25092,1.04409 l -1.11866,-7.3086 q 1.71528,-0.59662 4.99669,-1.19324 3.28141,-0.59662 7.01029,-0.59662 z"
           style="font-weight:500;font-family:Ubuntu;-inkscape-font-specification:'Ubuntu Medium'"
           id="path4238" />
        <path
           d="m 465.29179,406.51697 q 1.71528,-1.78986 3.6543,-3.80345 1.93901,-2.08817 3.80345,-4.10177 1.86444,-2.08817 3.50514,-3.9526 1.71528,-1.93902 2.90852,-3.35599 h 10.66459 q -3.72888,4.17634 -7.90522,8.65099 -4.10176,4.47465 -8.2781,8.72557 2.23732,1.86443 4.69838,4.54922 2.46106,2.61022 4.77296,5.59332 2.3119,2.9831 4.3255,5.96619 2.01359,2.9831 3.35598,5.51874 h -10.44085 q -1.34239,-2.3119 -3.13225,-4.84754 -1.71528,-2.53563 -3.72888,-4.92211 -2.01359,-2.38648 -4.10176,-4.47465 -2.08817,-2.16275 -4.10176,-3.6543 v 17.8986 h -9.02388 V 373.9266 l 9.02388,-1.49155 z"
           style="font-weight:500;font-family:Ubuntu;-inkscape-font-specification:'Ubuntu Medium'"
           id="path4240" />
        <path
           d="m 493.577,410.99162 q 0,-5.14585 1.49155,-9.02388 1.56612,-3.87803 4.10176,-6.41366 2.53563,-2.61022 5.81704,-3.87803 3.28141,-1.3424 6.71198,-1.3424 8.05437,0 12.52902,4.99669 4.54923,4.9967 4.54923,14.9155 0,0.74578 -0.0746,1.71529 0,0.89493 -0.0746,1.6407 h -25.72924 q 0.37289,4.69838 3.28141,7.3086 2.9831,2.53563 8.57642,2.53563 3.28141,0 5.9662,-0.59662 2.75936,-0.59662 4.32549,-1.26782 l 1.19324,7.38317 q -0.74577,0.37289 -2.08817,0.82036 -1.26782,0.37288 -2.9831,0.67119 -1.6407,0.37289 -3.57972,0.59662 -1.93901,0.22374 -3.95261,0.22374 -5.14584,0 -8.9493,-1.49155 -3.80345,-1.56613 -6.26451,-4.25092 -2.46105,-2.75937 -3.65429,-6.41366 -1.19324,-3.72888 -1.19324,-8.12895 z m 26.1767,-4.02719 q 0,-1.86443 -0.52204,-3.50514 -0.52205,-1.71528 -1.56613,-2.90852 -0.96951,-1.26782 -2.46106,-1.93902 -1.41697,-0.74577 -3.43056,-0.74577 -2.08817,0 -3.6543,0.82035 -1.56613,0.74578 -2.68479,2.01359 -1.04409,1.26782 -1.64071,2.90853 -0.59662,1.6407 -0.82035,3.35598 z"
           style="font-weight:500;font-family:Ubuntu;-inkscape-font-specification:'Ubuntu Medium'"
           id="path4242" />
        <path
           d="m 560.64261,399.43211 q -1.11866,-0.37289 -3.13225,-0.74578 -1.93902,-0.44746 -4.54923,-0.44746 -1.49155,0 -3.20683,0.29831 -1.64071,0.29831 -2.31191,0.52204 v 31.24797 h -9.02387 V 393.1676 q 2.61021,-0.96951 6.48824,-1.78986 3.95261,-0.89493 8.72557,-0.89493 0.89493,0 2.08817,0.14915 1.19324,0.0746 2.38648,0.29831 1.19324,0.14916 2.3119,0.44747 1.11866,0.22373 1.78986,0.44746 z"
           style="font-weight:500;font-family:Ubuntu;-inkscape-font-specification:'Ubuntu Medium'"
           id="path4244" />
        <path
           d="m 578.33798,423.81895 q 3.57972,0 5.22042,-0.82035 1.64071,-0.89493 1.64071,-2.9831 0,-1.93902 -1.78986,-3.20684 -1.71528,-1.26781 -5.74247,-2.75936 -2.46106,-0.89493 -4.54923,-1.86444 -2.01359,-1.04409 -3.50514,-2.38648 -1.49155,-1.3424 -2.38648,-3.20683 -0.82035,-1.93902 -0.82035,-4.69839 0,-5.36958 3.95261,-8.42725 3.9526,-3.13226 10.73916,-3.13226 3.43056,0 6.56282,0.6712 3.13225,0.59662 4.69838,1.19324 l -1.64071,7.30859 q -1.49155,-0.67119 -3.80345,-1.19324 -2.3119,-0.59662 -5.36958,-0.59662 -2.75937,0 -4.47465,0.96951 -1.71528,0.89493 -1.71528,2.83395 0,0.9695 0.29831,1.71528 0.37289,0.74577 1.19324,1.41697 0.82035,0.59662 2.16275,1.26782 1.34239,0.59662 3.28141,1.26782 3.20683,1.19324 5.44415,2.38648 2.23733,1.11866 3.6543,2.61021 1.49155,1.41697 2.16275,3.28141 0.6712,1.86444 0.6712,4.47465 0,5.59331 -4.17634,8.50183 -4.10177,2.83395 -11.78325,2.83395 -5.14585,0 -8.2781,-0.89493 -3.13226,-0.82036 -4.40007,-1.3424 l 1.56612,-7.53232 q 2.0136,0.82035 4.77296,1.56612 2.83395,0.74578 6.41367,0.74578 z"
           style="font-weight:500;font-family:Ubuntu;-inkscape-font-specification:'Ubuntu Medium'"
           id="path4246" />
      </g>
    </g>
  </g>
</svg>
