<?xml version="1.0" encoding="UTF-8" standalone="no"?>
<svg
   height="700"
   viewBox="0 0 2741.1167 1155"
   width="1200"
   version="1.1"
   id="svg5"
   sodipodi:docname="garage-education.svg"
   inkscape:version="1.2.2 (b0a8486541, 2022-12-01)"
   xml:space="preserve"
   xmlns:inkscape="http://www.inkscape.org/namespaces/inkscape"
   xmlns:sodipodi="http://sodipodi.sourceforge.net/DTD/sodipodi-0.dtd"
   xmlns="http://www.w3.org/2000/svg"
   xmlns:svg="http://www.w3.org/2000/svg"><defs
     id="defs9" /><sodipodi:namedview
     id="namedview7"
     pagecolor="#ffffff"
     bordercolor="#000000"
     borderopacity="0.25"
     inkscape:pageshadow="2"
     inkscape:pageopacity="0.0"
     inkscape:pagecheckerboard="0"
     showgrid="false"
     inkscape:zoom="0.59409612"
     inkscape:cx="607.64578"
     inkscape:cy="600.91286"
     inkscape:window-width="1920"
     inkscape:window-height="1168"
     inkscape:window-x="0"
     inkscape:window-y="0"
     inkscape:window-maximized="1"
     inkscape:current-layer="logo"
     inkscape:showpageshadow="2"
     inkscape:deskcolor="#d1d1d1" /><g
     id="logo"><rect
       style="fill:#000000;stroke-width:103.498;stroke-linecap:square;stroke-linejoin:bevel;stop-color:#000000;fill-opacity:1"
       id="rect338"
       width="2741.1167"
       height="1598.9847"
       x="3.9062499e-07"
       y="-221.99237" /><path
       style="fill:#9e9e9e;stroke-width:2.28426"
       d="m 699.6552,-611.69963 c 1.5704,-0.63368 4.1402,-0.63368 5.7107,0 1.5704,0.63368 0.2855,1.15216 -2.8554,1.15216 -3.1408,0 -4.4257,-0.51848 -2.8553,-1.15216 z m 75.3807,0 c 1.5705,-0.63368 4.1403,-0.63368 5.7107,0 1.5704,0.63368 0.2855,1.15216 -2.8553,1.15216 -3.1409,0 -4.4258,-0.51848 -2.8554,-1.15216 z m -98.0806,-2.33185 c 1.649,-0.65985 3.6192,-0.57872 4.3782,0.18023 0.7591,0.75904 -0.5901,1.29892 -2.9981,1.19974 -2.661,-0.10964 -3.2023,-0.65088 -1.3801,-1.38006 z m 123.3503,0 c 1.6489,-0.65985 3.6191,-0.57872 4.3782,0.18023 0.759,0.75904 -0.5901,1.29892 -2.9981,1.19974 -2.6611,-0.10964 -3.2023,-0.65088 -1.3801,-1.38006 z M 391.5593,-742.10301 c -2.8414,-3.623 -2.7606,-3.7038 0.8624,-0.8625 2.1986,1.7243 3.9975,3.5231 3.9975,3.9975 0,1.88 -1.8758,0.67 -4.8599,-3.135 z m 738.1086,-42.5503 c 0,-0.4743 1.7989,-2.2732 3.9975,-3.9975 3.623,-2.8413 3.7038,-2.7605 0.8624,0.8625 -2.9841,3.805 -4.8599,5.015 -4.8599,3.135 z m -911.241,-288.28729 c 0.1096,-2.6611 0.6509,-3.2023 1.3801,-1.3801 0.6598,1.6489 0.5787,3.6191 -0.1804,4.3782 -0.759,0.759 -1.2989,-0.5901 -1.1997,-2.9981 z m 1041.6244,0 c 0.1097,-2.6611 0.6509,-3.2023 1.3801,-1.3801 0.6598,1.6489 0.5787,3.6191 -0.1803,4.3782 -0.759,0.759 -1.2989,-0.5901 -1.1997,-2.9981 z M 216.323,-1096.735 c 0,-3.1409 0.5184,-4.4258 1.1521,-2.8554 0.6337,1.5705 0.6337,4.1403 0,5.7107 -0.6337,1.5704 -1.1521,0.2855 -1.1521,-2.8553 z m 1046.1929,0 c 0,-3.1409 0.5185,-4.4258 1.1522,-2.8554 0.6336,1.5705 0.6336,4.1403 0,5.7107 -0.6337,1.5704 -1.1522,0.2855 -1.1522,-2.8553 z M 216.323,-1172.1158 c 0,-3.1408 0.5184,-4.4257 1.1521,-2.8553 0.6337,1.5704 0.6337,4.1402 0,5.7107 -0.6337,1.5704 -1.1521,0.2855 -1.1521,-2.8554 z m 1046.1929,0 c 0,-3.1408 0.5185,-4.4257 1.1522,-2.8553 0.6336,1.5704 0.6336,4.1402 0,5.7107 -0.6337,1.5704 -1.1522,0.2855 -1.1522,-2.8554 z m -1044.089,-24.1751 c 0.1096,-2.661 0.6509,-3.2023 1.3801,-1.3801 0.6598,1.649 0.5787,3.6192 -0.1804,4.3782 -0.759,0.7591 -1.2989,-0.5901 -1.1997,-2.9981 z m 1041.6244,0 c 0.1097,-2.661 0.6509,-3.2023 1.3801,-1.3801 0.6598,1.649 0.5787,3.6192 -0.1803,4.3782 -0.759,0.7591 -1.2989,-0.5901 -1.1997,-2.9981 z M 562.8791,-1304.032 c -2.8414,-3.623 -2.7606,-3.7038 0.8624,-0.8625 2.1986,1.7243 3.9975,3.5232 3.9975,3.9975 0,1.8801 -1.8759,0.67 -4.8599,-3.135 z m 37.2002,-14.2767 c 0,-3.1408 0.5185,-4.4257 1.1522,-2.8553 0.6337,1.5704 0.6337,4.1402 0,5.7107 -0.6337,1.5704 -1.1522,0.2855 -1.1522,-2.8554 z m -23.7743,-22.0712 c 1.5704,-0.6336 4.1402,-0.6336 5.7106,0 1.5704,0.6337 0.2855,1.1522 -2.8553,1.1522 -3.1409,0 -4.4258,-0.5185 -2.8553,-1.1522 z m -186.7386,-184.375 c 0,-0.4743 1.7988,-2.2732 3.9974,-3.9974 3.623,-2.8413 3.7038,-2.7606 0.8625,0.8624 -2.9841,3.805 -4.8599,5.0151 -4.8599,3.135 z m 287.3889,-130.901 c 1.649,-0.6598 3.6192,-0.5787 4.3782,0.1804 0.7591,0.759 -0.5901,1.2989 -2.9981,1.1997 -2.661,-0.1096 -3.2023,-0.6509 -1.3801,-1.3801 z m 123.3503,0 c 1.6489,-0.6598 3.6191,-0.5787 4.3782,0.1804 0.759,0.759 -0.5901,1.2989 -2.9981,1.1997 -2.6611,-0.1096 -3.2023,-0.6509 -1.3801,-1.3801 z m -100.6504,-2.2367 c 1.5704,-0.6336 4.1402,-0.6336 5.7107,0 1.5704,0.6337 0.2855,1.1522 -2.8554,1.1522 -3.1408,0 -4.4257,-0.5185 -2.8553,-1.1522 z m 75.3807,0 c 1.5705,-0.6336 4.1403,-0.6336 5.7107,0 1.5704,0.6337 0.2855,1.1522 -2.8553,1.1522 -3.1409,0 -4.4258,-0.5185 -2.8554,-1.1522 z"
       id="path263" /><path
       style="fill:#5d5d5d;stroke-width:2.28426"
       d="m 708.7923,-611.69963 c 1.5704,-0.63368 4.1402,-0.63368 5.7106,0 1.5705,0.63368 0.2856,1.15216 -2.8553,1.15216 -3.1409,0 -4.4258,-0.51848 -2.8553,-1.15216 z m 57.1066,0 c 1.5704,-0.63368 4.1402,-0.63368 5.7106,0 1.5705,0.63368 0.2856,1.15216 -2.8553,1.15216 -3.1409,0 -4.4258,-0.51848 -2.8553,-1.15216 z m 327.2208,-136.68518 c 2.9507,-3.1408 5.8788,-5.7106 6.507,-5.7106 0.6282,0 -1.272,2.5698 -4.2227,5.7106 -2.9507,3.1409 -5.8789,5.7107 -6.5071,5.7107 -0.6281,0 1.2721,-2.5698 4.2228,-5.7107 z m -708.4132,-0.571 c -2.8414,-3.623 -2.7606,-3.7038 0.8624,-0.8625 2.1986,1.7243 3.9975,3.5231 3.9975,3.9975 0,1.88 -1.8758,0.67 -4.8599,-3.135 z m -31.8612,-31.9797 -5.5378,-6.2818 6.2817,5.5378 c 5.8712,5.1759 7.3293,7.0257 5.5378,7.0257 -0.4092,0 -3.236,-2.8268 -6.2817,-6.2817 z m 769.9698,3.135 c 0,-0.4743 1.7989,-2.2732 3.9975,-3.9975 3.623,-2.8413 3.7038,-2.7605 0.8624,0.8625 -2.9841,3.805 -4.8599,5.015 -4.8599,3.135 z M 216.4076,-1107.0142 c 0.047,-3.7691 0.5585,-5.0344 1.1377,-2.8119 0.5791,2.2225 0.541,5.3063 -0.085,6.8528 -0.6257,1.5465 -1.0995,-0.2719 -1.053,-4.0409 z m 1046.193,0 c 0.047,-3.7691 0.5585,-5.0344 1.1376,-2.8119 0.5792,2.2225 0.5411,5.3063 -0.085,6.8528 -0.6258,1.5465 -1.0996,-0.2719 -1.0531,-4.0409 z m -1046.193,-54.8224 c 0.047,-3.769 0.5585,-5.0343 1.1377,-2.8118 0.5791,2.2225 0.541,5.3062 -0.085,6.8528 -0.6257,1.5465 -1.0995,-0.2719 -1.053,-4.041 z m 1046.193,0 c 0.047,-3.769 0.5585,-5.0343 1.1376,-2.8118 0.5792,2.2225 0.5411,5.3062 -0.085,6.8528 -0.6258,1.5465 -1.0996,-0.2719 -1.0531,-4.041 z m -909.5825,-326.6497 c 2.9507,-3.1409 5.8789,-5.7107 6.5071,-5.7107 0.6281,0 -1.2721,2.5698 -4.2228,5.7107 -2.9507,3.1408 -5.8788,5.7106 -6.507,5.7106 -0.6282,0 1.2721,-2.5698 4.2227,-5.7106 z m 773.0064,0.571 -4.3515,-5.1396 5.1396,4.3515 c 4.8299,4.0894 6.1795,5.9277 4.3515,5.9277 -0.4335,0 -2.7463,-2.3128 -5.1396,-5.1396 z m -743.3109,-29.9868 c 0,-0.4743 1.7988,-2.2732 3.9974,-3.9974 3.623,-2.8414 3.7038,-2.7606 0.8625,0.8624 -2.9841,3.805 -4.8599,5.0151 -4.8599,3.135 z m 709.0469,-4.2771 -4.3515,-5.1396 5.1396,4.3515 c 2.8268,2.3933 5.1396,4.7061 5.1396,5.1396 0,1.828 -1.8383,0.4784 -5.9277,-4.3515 z m -381.7826,-135.7835 c 2.2225,-0.5792 5.3062,-0.5411 6.8528,0.085 1.5465,0.6257 -0.2719,1.0996 -4.041,1.053 -3.769,-0.046 -5.0343,-0.5584 -2.8118,-1.1376 z m 54.8223,0 c 2.2225,-0.5792 5.3063,-0.5411 6.8528,0.085 1.5465,0.6257 -0.2719,1.0996 -4.0409,1.053 -3.7691,-0.046 -5.0344,-0.5584 -2.8119,-1.1376 z"
       id="path259" /><path
       style="fill:#581d13;stroke-width:2.28426"
       d="m 717.9293,-611.69963 c 1.5705,-0.63368 4.1403,-0.63368 5.7107,0 1.5704,0.63368 0.2855,1.15216 -2.8553,1.15216 -3.1409,0 -4.4258,-0.51848 -2.8554,-1.15216 z m 38.8325,0 c 1.5704,-0.63368 4.1402,-0.63368 5.7107,0 1.5704,0.63368 0.2855,1.15216 -2.8554,1.15216 -3.1408,0 -4.4257,-0.51848 -2.8553,-1.15216 z m -381.0739,-146.39328 -5.5378,-6.2817 6.2817,5.5377 c 5.8713,5.1759 7.3293,7.0257 5.5378,7.0257 -0.4092,0 -3.2359,-2.8267 -6.2817,-6.2817 z m 724.2846,3.135 c 0,-0.4743 1.7988,-2.2732 3.9975,-3.9974 3.6229,-2.8414 3.7037,-2.7606 0.8624,0.8624 -2.9841,3.805 -4.8599,5.0151 -4.8599,3.135 z m -738.1087,-16.8406 c -2.8413,-3.623 -2.7605,-3.7038 0.8625,-0.8624 2.1986,1.7242 3.9974,3.5231 3.9974,3.9974 0,1.8801 -1.8758,0.67 -4.8599,-3.135 z m 755.2407,-0.571 c 2.2739,-2.5127 4.6484,-4.5686 5.2766,-4.5686 0.6281,0 -0.7184,2.0559 -2.9924,4.5686 -2.2739,2.5126 -4.6484,4.5685 -5.2766,4.5685 -0.6281,0 0.7184,-2.0559 2.9924,-4.5685 z m -491.6444,-49.5526 c 2.2225,-0.5791 5.3063,-0.541 6.8528,0.085 1.5465,0.6257 -0.2719,1.0996 -4.0409,1.053 -3.7691,-0.047 -5.0344,-0.5585 -2.8119,-1.1377 z m 17.1294,-0.072 c 4.1056,-0.5084 10.2732,-0.4979 13.7056,0.023 3.4325,0.5212 0.073,0.9372 -7.4648,0.9244 -7.538,-0.014 -10.3464,-0.4393 -6.2408,-0.9477 z m 314.0889,0.072 c 2.2225,-0.5791 5.3063,-0.541 6.8528,0.085 1.5465,0.6257 -0.2719,1.0996 -4.041,1.053 -3.769,-0.047 -5.0343,-0.5585 -2.8118,-1.1377 z m 73.0964,0 c 2.2226,-0.5791 5.3063,-0.541 6.8528,0.085 1.5465,0.6257 -0.2719,1.0996 -4.0409,1.053 -3.769,-0.047 -5.0344,-0.5585 -2.8119,-1.1377 z m -579.8925,-14.9779 -4.3515,-5.1396 5.1396,4.3515 c 2.8268,2.3933 5.1396,4.7061 5.1396,5.1396 0,1.828 -1.8383,0.4784 -5.9277,-4.3515 z m 49.5091,1.5228 c 0.1096,-2.661 0.6509,-3.2023 1.38,-1.38 0.6599,1.6489 0.5788,3.6191 -0.1802,4.3781 -0.759,0.7591 -1.2989,-0.5901 -1.1997,-2.9981 z m -4.5685,-25.1269 c 0.1096,-2.661 0.6508,-3.2023 1.38,-1.38 0.6599,1.6489 0.5787,3.6191 -0.1802,4.3781 -0.7591,0.7591 -1.2989,-0.5901 -1.1998,-2.9981 z m 189.5939,-6.8528 c 0.1096,-2.661 0.6509,-3.2023 1.38,-1.38 0.6599,1.6489 0.5788,3.6191 -0.1802,4.3781 -0.7591,0.7591 -1.2989,-0.5901 -1.1997,-2.9981 z m -191.6979,-10.0888 c 0,-3.1409 0.5185,-4.4258 1.1522,-2.8553 0.6337,1.5704 0.6337,4.1402 0,5.7106 -0.6337,1.5705 -1.1522,0.2856 -1.1522,-2.8553 z m 45.505,-17.3223 c 0.1096,-2.6611 0.6509,-3.2023 1.38,-1.3801 0.6599,1.6489 0.5788,3.6191 -0.1802,4.3782 -0.7591,0.759 -1.2989,-0.5901 -1.1997,-2.9981 z m -109.6447,-6.8528 c 0.1096,-2.6611 0.6509,-3.2023 1.3801,-1.3801 0.6598,1.6489 0.5787,3.6191 -0.1804,4.3782 -0.759,0.759 -1.2989,-0.5901 -1.1997,-2.9981 z m 62.0708,-4.3782 c 0.025,-5.0254 0.4932,-6.8122 1.0396,-3.9708 0.5463,2.8414 0.5256,6.9531 -0.046,9.137 -0.5717,2.184 -1.0188,-0.1409 -0.9934,-5.1662 z m 537.0091,-34.264 c 0.01,-10.0507 0.4099,-13.8783 0.8924,-8.5056 0.4826,5.3727 0.4758,13.5961 -0.016,18.2741 -0.4909,4.6781 -0.8857,0.2823 -0.8774,-9.7685 z m -534.9402,7.995 c 0,-3.1409 0.5185,-4.4258 1.1522,-2.8554 0.6337,1.5705 0.6337,4.1403 0,5.7107 -0.6337,1.5704 -1.1522,0.2855 -1.1522,-2.8553 z m -73.2768,-15.0381 c 0.1096,-2.661 0.6509,-3.2023 1.3801,-1.3801 0.6599,1.649 0.5787,3.6192 -0.1803,4.3782 -0.7591,0.759 -1.299,-0.5901 -1.1998,-2.9981 z m 287.637,0.47 c 0,-0.4743 1.7988,-2.2731 3.9974,-3.9974 3.623,-2.8414 3.7038,-2.7606 0.8625,0.8624 -2.9841,3.805 -4.8599,5.0151 -4.8599,3.135 z m 95.5108,-9.835 c 1.6489,-0.6598 3.6191,-0.5787 4.3781,0.1803 0.7591,0.759 -0.5901,1.2989 -2.9981,1.1997 -2.661,-0.1097 -3.2023,-0.6509 -1.38,-1.3801 z m -385.432,-4.3406 c 0.1096,-2.661 0.6509,-3.2023 1.38,-1.3801 0.6599,1.649 0.5788,3.6192 -0.1803,4.3782 -0.759,0.7591 -1.2989,-0.5901 -1.1997,-2.9981 z m 330.4669,-0.1803 c 1.5704,-0.6337 4.1402,-0.6337 5.7106,0 1.5704,0.6337 0.2856,1.1521 -2.8553,1.1521 -3.1409,0 -4.4258,-0.5184 -2.8553,-1.1521 z m -332.7512,-13.5253 c 0.1096,-2.661 0.6509,-3.2023 1.3801,-1.38 0.6598,1.6489 0.5787,3.6191 -0.1804,4.3781 -0.759,0.7591 -1.2989,-0.5901 -1.1997,-2.9981 z m 614.467,-13.7055 c 0.1097,-2.6611 0.6509,-3.2024 1.3801,-1.3801 0.6599,1.6489 0.5787,3.6191 -0.1802,4.3781 -0.7591,0.7591 -1.2989,-0.5901 -1.1998,-2.998 z m -616.7513,-2.2843 c 0.1096,-2.6611 0.6509,-3.2023 1.3801,-1.3801 0.6599,1.6489 0.5787,3.6191 -0.1803,4.3782 -0.7591,0.759 -1.2989,-0.5901 -1.1998,-2.9981 z m -2.1039,-16.94159 c 0,-3.1409 0.5185,-4.4258 1.1522,-2.8554 0.6337,1.5705 0.6337,4.1403 0,5.7107 -0.6337,1.5704 -1.1522,0.2855 -1.1522,-2.8553 z m 621.1395,-5.9011 c 0.1097,-2.661 0.6509,-3.2023 1.3801,-1.38 0.6598,1.6489 0.5787,3.6191 -0.1803,4.3781 -0.759,0.7591 -1.2989,-0.5901 -1.1997,-2.9981 z m -623.3391,-15.7995 c 0.047,-3.769 0.5585,-5.0343 1.1377,-2.8118 0.5791,2.2225 0.541,5.3063 -0.085,6.8528 -0.6257,1.5465 -1.0996,-0.2719 -1.053,-4.041 z m -2.0763,-31.9797 c 0.017,-6.2817 0.4608,-8.5804 0.9859,-5.1081 0.525,3.4722 0.511,8.6118 -0.031,11.4213 -0.5422,2.8095 -0.9718,-0.031 -0.9547,-6.3132 z m 673.385,-23.0329 c 0.1096,-2.6611 0.6508,-3.2023 1.38,-1.3801 0.6599,1.6489 0.5787,3.6191 -0.1802,4.3782 -0.7591,0.759 -1.2989,-0.5902 -1.1998,-2.9981 z m -863.2715,-32.9315 c 0,-3.1409 0.5184,-4.4258 1.1521,-2.8553 0.6337,1.5704 0.6337,4.1402 0,5.7106 -0.6337,1.5704 -1.1521,0.2855 -1.1521,-2.8553 z m 390.2485,-16.8523 c 0,-0.4743 1.7988,-2.2732 3.9974,-3.9975 3.623,-2.8413 3.7038,-2.7605 0.8625,0.8625 -2.9841,3.805 -4.8599,5.015 -4.8599,3.135 z m -200.3931,-17.4117 c 0,-5.6535 0.4454,-7.9664 0.9899,-5.1396 0.5445,2.8268 0.5445,7.4524 0,10.2792 -0.5445,2.8268 -0.9899,0.514 -0.9899,-5.1396 z m -189.8554,0 c 0,-3.1408 0.5184,-4.4257 1.1521,-2.8553 0.6337,1.5704 0.6337,4.1402 0,5.7106 -0.6337,1.5705 -1.1521,0.2856 -1.1521,-2.8553 z m 413.0911,-12.2837 c 0,-0.4744 1.7989,-2.2732 3.9975,-3.9975 3.6229,-2.8413 3.7037,-2.7605 0.8624,0.8624 -2.9841,3.8051 -4.8599,5.0151 -4.8599,3.1351 z m -221.1283,-16.2696 c 0.047,-3.769 0.5585,-5.0344 1.1377,-2.8118 0.5791,2.2225 0.541,5.3062 -0.085,6.8528 -0.6257,1.5465 -1.0996,-0.2719 -1.053,-4.041 z m 2.1996,-19.4162 c 0,-3.1409 0.5185,-4.4258 1.1522,-2.8554 0.6337,1.5705 0.6337,4.1403 0,5.7107 -0.6337,1.5704 -1.1522,0.2855 -1.1522,-2.8553 z m 2.1039,-17.3224 c 0.1096,-2.661 0.6509,-3.2023 1.3801,-1.38 0.6599,1.6489 0.5787,3.6191 -0.1803,4.3781 -0.7591,0.7591 -1.2989,-0.5901 -1.1998,-2.9981 z m 2.2843,-13.7055 c 0.1096,-2.6611 0.6509,-3.2023 1.3801,-1.3801 0.6598,1.6489 0.5787,3.6191 -0.1804,4.3782 -0.759,0.759 -1.2989,-0.5902 -1.1997,-2.9981 z m 2.2843,-11.4214 c 0.1096,-2.661 0.6509,-3.2023 1.38,-1.38 0.6599,1.6489 0.5788,3.6191 -0.1803,4.3781 -0.759,0.7591 -1.2989,-0.5901 -1.1997,-2.9981 z m 2.2842,-11.4213 c 0.1096,-2.661 0.6509,-3.2023 1.3801,-1.3801 0.6599,1.649 0.5787,3.6192 -0.1803,4.3782 -0.7591,0.7591 -1.299,-0.5901 -1.1998,-2.9981 z m 267.2589,-18.2741 c 0.1097,-2.661 0.6509,-3.2023 1.3801,-1.3801 0.6599,1.649 0.5787,3.6191 -0.1802,4.3782 -0.7591,0.759 -1.299,-0.5901 -1.1998,-2.9981 z m 2.7885,-26.0787 c 0,-6.9099 0.4282,-9.7367 0.9516,-6.2817 0.5234,3.4549 0.5234,9.1085 0,12.5634 -0.5234,3.455 -0.9516,0.6282 -0.9516,-6.2817 z m -2.7885,-28.7436 c 0.1097,-2.6611 0.6509,-3.2023 1.3801,-1.3801 0.6599,1.6489 0.5787,3.6191 -0.1802,4.3782 -0.7591,0.759 -1.299,-0.5901 -1.1998,-2.9981 z m 284.1247,-35.7868 -11.3355,-11.9924 11.9924,11.3354 c 6.5958,6.2345 11.9924,11.6311 11.9924,11.9924 0,1.7045 -2.1162,-0.1919 -12.6493,-11.3354 z m -339.1273,-75.9518 c -5.5486,-5.6536 -9.5744,-10.2792 -8.9462,-10.2792 0.6282,0 5.6819,4.6256 11.2304,10.2792 5.5486,5.6535 9.5743,10.2792 8.9462,10.2792 -0.6282,0 -5.6819,-4.6257 -11.2304,-10.2792 z m -114.2132,-9.1371 c 4.2619,-4.3972 8.2629,-7.9949 8.8911,-7.9949 0.6281,0 -2.3449,3.5977 -6.6069,7.9949 -4.2619,4.3972 -8.2629,7.9949 -8.8911,7.9949 -0.6282,0 2.3449,-3.5977 6.6069,-7.9949 z m 161.7544,-32.398 c 1.6489,-0.6598 3.6191,-0.5787 4.3782,0.1804 0.759,0.759 -0.5901,1.2989 -2.9981,1.1997 -2.6611,-0.1096 -3.2023,-0.6508 -1.3801,-1.38 z m 437.6478,-17.2847 -4.3515,-5.1396 5.1396,4.3515 c 4.83,4.0893 6.1795,5.9277 4.3515,5.9277 -0.4334,0 -2.7462,-2.3128 -5.1396,-5.1396 z m -757.0165,1.9929 c 0,-0.4744 1.7989,-2.2732 3.9975,-3.9975 3.623,-2.8413 3.7038,-2.7605 0.8624,0.8624 -2.9841,3.8051 -4.8599,5.0151 -4.8599,3.1351 z m 15.9899,-16.2696 c 2.9507,-3.1408 5.8788,-5.7106 6.507,-5.7106 0.6282,0 -1.2721,2.5698 -4.2228,5.7106 -2.9506,3.1409 -5.8788,5.7107 -6.507,5.7107 -0.6281,0 1.2721,-2.5698 4.2228,-5.7107 z m 725.0368,-1.7132 -4.3515,-5.1396 5.1396,4.3515 c 4.8299,4.0894 6.1795,5.9277 4.3515,5.9277 -0.4335,0 -2.7463,-2.3128 -5.1396,-5.1396 z m -379.4984,-144.9205 c 2.2225,-0.5792 5.3063,-0.5411 6.8528,0.085 1.5465,0.6257 -0.2719,1.0996 -4.0409,1.053 -3.7691,-0.046 -5.0344,-0.5584 -2.8119,-1.1376 z m 31.9797,0 c 2.2225,-0.5792 5.3063,-0.5411 6.8528,0.085 1.5465,0.6257 -0.2719,1.0996 -4.041,1.053 -3.769,-0.046 -5.0343,-0.5584 -2.8118,-1.1376 z"
       id="path253" /><g
       id="g421"
       transform="matrix(0.8712631,0,0,0.8712631,176.42881,115.56148)"><g
         id="g334"
         transform="matrix(1.2006207,0,0,1.2006207,-280.85805,35.566482)"><g
           id="g1330"
           transform="matrix(0.83029231,0,0,0.83029231,208.27531,-111.46641)"><path
             style="fill:#fbb511;stroke-width:2.28426"
             d="m 1244.3479,958.30539 c -13.5228,-2.1989 -22.8818,-7.1169 -30.2837,-15.9136 -8.9552,-10.6426 -11.3144,-22.8695 -9.9131,-51.3741 1.3693,-27.854 6.7047,-49.7317 17.9139,-73.4561 9.6845,-20.4974 49.1265,-78.90149 81.5165,-120.70639 68.9812,-89.0321 76.5112,-100.8151 88.1492,-137.9356 16.9282,-53.9943 11.646,-117.1098 -14.4639,-172.827 -11.0143,-23.5039 -20.5571,-38.3154 -40.9914,-63.6234 -9.0261,-11.1788 -16.1347,-20.5131 -15.797,-20.7429 0.3377,-0.2297 11.9211,0.397 25.7409,1.3929 165.7744,11.9456 289.3444,83.0414 348.203,200.3379 21.4835,42.8134 36.2851,96.71 44.7629,162.9946 5.3628,41.929 5.007,42.6328 -11.3991,22.5494 -11.5425,-14.1296 -13.876,-16.0138 -15.3555,-12.3987 -2.8322,6.9199 -15.192,70.9828 -18.2305,94.4914 -1.5427,11.93529 -2.8616,40.71699 -2.9309,63.95939 -0.1414,47.4107 1.9781,59.2228 15.925,88.7523 15.5741,32.9749 13.317,34.6023 -47.9679,34.5852 -26.4593,-0.01 -49.5974,-1.0814 -54.8776,-2.5472 -12.8698,-3.5729 -26.7276,-18.3271 -32.9959,-35.1304 -2.8121,-7.5381 -6.0398,-23.4033 -7.1727,-35.256 -1.7002,-17.7868 -3.1603,-23.1426 -8.3606,-30.6675 -8.6315,-12.4898 -23.0405,-21.0856 -40.4182,-24.1118 -26.6453,-4.6401 -65.4514,-9.2618 -90.0233,-10.7215 -43.4019,-2.5784 -54.5885,4.2385 -66.1348,40.301 -3.8078,11.8928 -8.9697,35.2754 -11.471,51.9614 -4.6868,31.2661 -8.2672,40.4154 -17.0912,43.674 -7.0678,2.6101 -73.6725,4.4714 -86.3331,2.4127 z"
             id="path261" /><path
             style="fill:#bc2234;stroke-width:2.28426"
             d="m 1123.5491,949.83389 c -12.3998,-6.2299 -17.2816,-16.1093 -26.0938,-52.8071 -38.6704,-161.03919 -37.5304,-305.32319 3.4042,-430.88229 14.8983,-45.6973 43.7427,-92.7556 78.6085,-128.2461 15.3648,-15.6401 20.2494,-19.1858 30.6811,-22.2716 15.6227,-4.6213 25.7346,-4.6316 41.4297,-0.042 17.2186,5.035 31.384,14.6113 48.2523,32.6203 54.4493,58.1313 68.3022,155.3422 30.9713,217.3358 -4.1711,6.9269 -27.0788,38.1047 -50.9058,69.2842 -85.2422,111.5455 -102.9822,139.2512 -116.1801,181.44569 -10.5947,33.8723 -11.9619,77.1222 -3.5903,113.5794 3.8791,16.8927 3.2413,18.6142 -7.9387,21.4294 -13.8788,3.4947 -19.3557,3.2182 -28.6384,-1.4456 z m 130.284,-468.90929 c 6.5711,-3.5168 11.8178,-15.194 10.1791,-22.6549 -4.897,-22.2958 -38.7466,-22.6984 -42.9879,-0.5113 -1.4302,7.4817 3.364,19.6232 9.0546,22.9311 5.4016,3.1399 18.0918,3.2655 23.7542,0.2351 z"
             id="path257" /><circle
             style="opacity:1;fill:#ffffff;fill-opacity:1;stroke:none;stroke-width:4.60971;stroke-linecap:square;stroke-dashoffset:4.56021;stop-color:#000000"
             id="path722"
             cx="1241.9819"
             cy="463.04852"
             r="22.286016" /></g></g></g></g></svg>
