<svg xmlns="http://www.w3.org/2000/svg" xmlns:xlink="http://www.w3.org/1999/xlink" width="1920" zoomAndPan="magnify" viewBox="0 0 1440 809.999993" height="1080" preserveAspectRatio="xMidYMid meet" version="1.0"><defs><clipPath id="01562e3ce0"><path d="M 527 184 L 913 184 L 913 626.785156 L 527 626.785156 Z M 527 184 " clip-rule="nonzero"/></clipPath><clipPath id="af5a0c9035"><path d="M 521 183.535156 L 919 183.535156 L 919 626.785156 L 521 626.785156 Z M 521 183.535156 " clip-rule="nonzero"/></clipPath><clipPath id="6712efcff6"><path d="M 498.535156 183.535156 L 848 183.535156 L 848 626.785156 L 498.535156 626.785156 Z M 498.535156 183.535156 " clip-rule="nonzero"/></clipPath><clipPath id="6352b672ab"><path d="M 593 183.535156 L 941.785156 183.535156 L 941.785156 626.785156 L 593 626.785156 Z M 593 183.535156 " clip-rule="nonzero"/></clipPath></defs><rect x="-144" width="1728" fill="#ffffff" y="-80.999999" height="971.999992" fill-opacity="1"/><rect x="-144" width="1728" fill="#ffffff" y="-80.999999" height="971.999992" fill-opacity="1"/><g clip-path="url(#01562e3ce0)"><path fill="#ce5c00" d="M 527.546875 295.316406 L 527.546875 517.726562 L 720.164062 626.1875 L 912.773438 517.726562 L 912.773438 295.320312 L 720.167969 184.121094 L 527.546875 295.316406 " fill-opacity="1" fill-rule="nonzero"/></g><g clip-path="url(#af5a0c9035)"><path stroke-linecap="butt" transform="matrix(0.00380918, 2.629269, -2.627157, 0.00380918, 2299.862459, -71.339772)" fill="none" stroke-linejoin="miter" d="M 138.474114 674.814319 L 223.064048 674.936968 L 264.421548 601.679199 L 223.276483 528.304781 L 138.688034 528.182134 L 96.289083 601.433933 L 138.474114 674.814319 " stroke="#ce5c00" stroke-width="0.39" stroke-opacity="1" stroke-miterlimit="4"/></g><g clip-path="url(#6712efcff6)"><path stroke-linecap="butt" transform="matrix(0.00380918, 2.629269, -2.627157, 0.00380918, 2286.010907, -74.03737)" fill="none" stroke-linejoin="miter" d="M 126.763735 604.83251 L 152.797862 648.533785 L 210.225182 648.617051 L 237.231381 600.747655 " stroke="#ffffff" stroke-width="9.313" stroke-opacity="1" stroke-miterlimit="4"/></g><path stroke-linecap="butt" transform="matrix(4.200269, -2.512511, 2.510497, 4.203648, 697.502131, 261.562272)" fill-opacity="1" fill="#ffffff" fill-rule="evenodd" stroke-linejoin="miter" d="M 5.769967 0.000294709 L -2.880128 4.999891 L -2.880354 -4.999929 Z M 5.769967 0.000294709 " stroke="#ffffff" stroke-width="1.333333" stroke-opacity="1" stroke-miterlimit="4"/><g clip-path="url(#6352b672ab)"><path stroke-linecap="butt" transform="matrix(0.00380918, 2.629269, -2.627157, 0.00380918, 2286.010907, -74.03737)" fill="none" stroke-linejoin="miter" d="M 236.012653 587.741692 L 209.98001 544.041905 L 152.55269 543.95864 L 125.545007 591.826546 " stroke="#ffffff" stroke-width="9.313" stroke-opacity="1" stroke-miterlimit="4"/></g><path stroke-linecap="butt" transform="matrix(-4.200269, 2.512509, -2.510496, -4.203649, 742.819481, 548.743936)" fill-opacity="1" fill="#ffffff" fill-rule="evenodd" stroke-linejoin="miter" d="M 5.770446 0.0000111747 L -2.880058 5.000295 L -2.879878 -5.000211 Z M 5.770446 0.0000111747 " stroke="#ffffff" stroke-width="1.333333" stroke-opacity="1" stroke-miterlimit="4"/><path stroke-linecap="square" transform="matrix(3.462891, 0, 0, 3.462891, 940.469959, 2068.647108)" fill-opacity="1" fill="#ffffff" fill-rule="nonzero" stroke-linejoin="miter" d="M -44.215802 -468.807279 L -63.620201 -458.13046 L -83.025728 -468.807279 L -83.025728 -491.598029 L -63.620201 -502.275976 L -44.215802 -491.598029 Z M -87.118227 -466.636946 L -63.620201 -453.406264 L -40.123304 -466.636946 L -40.123304 -493.768361 L -63.620201 -507.334069 L -87.090026 -493.77513 Z M -87.118227 -466.636946 " stroke="#ffffff" stroke-width="3" stroke-opacity="1" stroke-miterlimit="4"/></svg>