<?xml version="1.0" encoding="UTF-8" standalone="no"?>
<svg
   height="700"
   viewBox="0 0 2741.1167 1155"
   width="1200"
   version="1.1"
   id="svg5"
   sodipodi:docname="manara.svg"
   inkscape:version="1.1.2 (0a00cf5339, 2022-02-04)"
   xmlns:inkscape="http://www.inkscape.org/namespaces/inkscape"
   xmlns:sodipodi="http://sodipodi.sourceforge.net/DTD/sodipodi-0.dtd"
   xmlns="http://www.w3.org/2000/svg"
   xmlns:svg="http://www.w3.org/2000/svg">
  <defs
     id="defs9" />
  <sodipodi:namedview
     id="namedview7"
     pagecolor="#ffffff"
     bordercolor="#000000"
     borderopacity="0.25"
     inkscape:pageshadow="2"
     inkscape:pageopacity="0.0"
     inkscape:pagecheckerboard="0"
     showgrid="false"
     inkscape:zoom="0.39974619"
     inkscape:cx="921.83492"
     inkscape:cy="120.07619"
     inkscape:window-width="1920"
     inkscape:window-height="1053"
     inkscape:window-x="0"
     inkscape:window-y="0"
     inkscape:window-maximized="1"
     inkscape:current-layer="logo" />
  <g
     id="logo">
    <rect
       style="fill:#ffffff;stroke-width:103.498;stroke-linecap:square;stroke-linejoin:bevel;stop-color:#000000"
       id="rect338"
       width="2741.1167"
       height="1598.9847"
       x="3.9062499e-07"
       y="-221.99237" />
    <g
       id="g314"
       transform="matrix(4.3058532,0,0,4.3058532,401.74138,364.36027)">
      <path
         clip-rule="evenodd"
         d="M 211.775,49.5809 C 211.775,35.8655 219.929,27 232.262,27 c 0.845,0 2.198,0.0333 4.056,0.1 l 2.708,0.106 0.329,0.0161 c 10.813,0.6149 19.289,9.2185 19.289,19.6552 v 24.071 h -12.34 v -6.1641 l -1.451,1.6796 -0.161,0.183 C 241.755,69.9189 236.92,72 232.851,72 219.975,72 211.775,63.2765 211.775,49.5809 Z m 31.522,-6.388 c -1.685,-2.9918 -5.39,-4.6898 -9.264,-4.6898 -5.98,0 -10.275,3.8004 -10.275,10.9969 0,6.8731 3.958,11.0778 10.611,11.0778 3.706,0 7.075,-1.4555 8.928,-4.9325 0.843,-1.9624 1.265,-4.2017 1.265,-6.7177 0,-2.5159 -0.422,-4.4275 -1.265,-5.7347 z m 72.567,6.388 C 315.864,35.8655 324.019,27 336.352,27 c 0.845,0 2.198,0.0333 4.055,0.1 l 2.709,0.106 0.328,0.0161 c 10.814,0.6149 19.29,9.2185 19.29,19.6552 v 24.071 h -12.34 v -6.1641 l -1.451,1.6796 -0.162,0.183 C 345.844,69.9189 341.009,72 336.941,72 324.064,72 315.864,63.2765 315.864,49.5809 Z m 31.522,-6.388 c -1.684,-2.9918 -5.39,-4.6898 -9.264,-4.6898 -5.979,0 -10.274,3.8004 -10.274,10.9969 0,6.8731 3.958,11.0778 10.611,11.0778 3.706,0 7.075,-1.4555 8.927,-4.9325 1.147,-1.9818 1.721,-4.2092 1.721,-6.6822 0,-2.2485 -0.574,-4.1718 -1.721,-5.7702 z M 423.618,27 c -12.333,0 -20.488,8.8655 -20.488,22.5809 0,13.6956 8.201,22.4191 21.077,22.4191 4.068,0 8.904,-2.0811 11.841,-5.3532 l 0.161,-0.183 1.451,-1.6796 v 6.1641 H 450 V 46.8773 C 450,36.4406 441.524,27.837 430.71,27.2221 L 430.382,27.206 427.673,27.1 c -1.857,-0.0667 -3.21,-0.1 -4.055,-0.1 z m 1.77,11.5031 c 3.874,0 7.58,1.698 9.264,4.6898 1.064,1.6417 1.596,3.7441 1.596,6.3071 0,2.563 -0.532,4.6115 -1.596,6.1453 -1.852,3.477 -5.221,4.9325 -8.927,4.9325 -6.653,0 -10.611,-4.2047 -10.611,-11.0778 0,-7.1965 4.295,-10.9969 10.274,-10.9969 z m -27.408,-11.4222 0.178,0.0014 c 0.295,0.0049 0.582,0.0221 0.897,0.0527 l 0.126,0.0131 v 13.3203 l -0.4,-0.0654 c -1.462,-0.2345 -2.575,-0.3426 -3.664,-0.3426 l -0.212,0.0012 c -6.95,0.0761 -11.136,3.9206 -11.136,11.2982 V 70.9483 H 370.924 V 44.9237 l 0.002,-0.2823 c 0.153,-9.3003 7.839,-16.9015 17.552,-17.2919 3.871,-0.1556 6.77,-0.2435 8.695,-0.264 z M 266.424,44.6928 c 1.902,-10.6157 9.013,-15.8577 21.578,-15.8577 8.587,0 14.42,2.3591 17.95,6.4285 l 0.191,0.2251 c 2.39,2.8679 3.483,6.3768 3.483,9.4023 V 70.9483 H 296.697 V 50.3092 l -0.002,-0.2804 c -0.027,-2.5904 -0.313,-4.4356 -1.207,-6.1443 -1.318,-2.5189 -3.766,-3.9317 -7.486,-3.9317 -3.953,0 -6.511,1.7611 -7.815,4.7489 l -0.109,0.259 c -0.772,1.9077 -0.968,3.9862 -0.854,6.1141 l -10e-4,19.8735 H 266.378 V 44.953 Z M 148.336,50.9395 V 71.1268 H 135.095 L 135,45.3937 c 0,0 1.265,-16.6152 21.505,-16.6152 10.331,0 13.039,2.3839 15.942,6.8973 3.415,-4.2672 8.601,-6.8973 15.261,-6.8973 17.921,0 18.862,12.9979 18.862,16.5807 V 71.1268 H 192.994 V 48.1493 c 0,-4.6775 -3.16,-7.6318 -7.173,-7.6318 -5.038,0 -8.368,3.5287 -8.368,10.422 V 71.1268 H 163.791 V 48.1493 c 0,-4.6775 -3.159,-7.6318 -7.258,-7.6318 -4.952,0 -8.197,3.5287 -8.197,10.422 z"
         fill="currentColor"
         fill-rule="evenodd"
         id="Manara" />
      <path
         clip-rule="evenodd"
         d="m 47.5969,40.5802 h -6.0952 l -0.004,5.7263 H 17.7654 L 0,28.9128 V 23.3362 L 23.5208,23.2739 23.8256,0 h 5.7904 l 6.0952,5.96768 5.7905,5.66932 5.7904,5.6693 z m 11.5039,0 H 53.0056 L 53.3104,17.3063 59.1008,11.637 64.8913,5.96768 70.9865,0 h 5.7904 l 0.3048,23.2739 23.5203,0.0623 v 5.5766 L 82.8371,46.3065 H 59.1048 Z M 47.056,46.3065 h 5.9496 v 5.8548 H 47.056 Z m -5.2883,52.5546 h 17.5872 v -4.9818 l -9.0365,-7.772 -8.5507,7.772 z M 53.0056,57.8875 h 6.0952 l 0.004,-5.7262 h 23.7323 l 17.7649,17.3936 v 5.5766 l -23.5203,0.0623 -0.3048,23.2739 h -5.7904 l -6.0952,-5.9676 -5.7905,-5.6693 -5.7904,-5.6693 z m -11.5039,0.5323 h 6.0952 L 47.2921,81.6937 41.5017,87.363 35.7112,93.0323 29.616,99 H 23.8256 L 23.5208,75.7261 0,75.6638 V 70.0872 L 17.7654,52.6935 H 41.4977 Z M 83.2945,99 V 81.4355 H 101.143 Z M 17.8488,81.4355 V 99 L 0,81.4355 Z M 83.2945,0 V 17.5645 H 101.143 Z M 17.8488,18.0968 V 0.532258 L 0,18.0968 Z M 100.602,58.0161 V 40.4516 h -4.9682 l -7.4714,8.7549 7.4714,8.8096 z M 41.4989,0.146035 H 59.086 V 4.87796 L 50.0496,11.8384 41.4989,4.87796 Z M 0,58.0161 V 40.4516 h 4.73783 l 7.70227,8.7549 -7.70227,8.8096 z"
         fill="#ff773b"
         fill-rule="evenodd"
         id="logo_2" />
    </g>
  </g>
</svg>
