<?xml version="1.0" encoding="UTF-8" standalone="no"?>
<svg
   height="700"
   viewBox="0 0 2741.1167 1155"
   width="1200"
   version="1.1"
   id="svg5"
   sodipodi:docname="dynamic-devops-roadmap.svg"
   inkscape:version="1.2.2 (b0a8486541, 2022-12-01)"
   xml:space="preserve"
   xmlns:inkscape="http://www.inkscape.org/namespaces/inkscape"
   xmlns:sodipodi="http://sodipodi.sourceforge.net/DTD/sodipodi-0.dtd"
   xmlns="http://www.w3.org/2000/svg"
   xmlns:svg="http://www.w3.org/2000/svg"><defs
     id="defs9" /><sodipodi:namedview
     id="namedview7"
     pagecolor="#ffffff"
     bordercolor="#000000"
     borderopacity="0.25"
     inkscape:pageshadow="2"
     inkscape:pageopacity="0.0"
     inkscape:pagecheckerboard="0"
     showgrid="false"
     inkscape:zoom="0.39974619"
     inkscape:cx="570.36191"
     inkscape:cy="322.70476"
     inkscape:window-width="1920"
     inkscape:window-height="1048"
     inkscape:window-x="0"
     inkscape:window-y="0"
     inkscape:window-maximized="1"
     inkscape:current-layer="g43321"
     inkscape:showpageshadow="2"
     inkscape:deskcolor="#d1d1d1" /><g
     id="logo"><rect
       style="fill:#ffffff;stroke-width:103.498;stroke-linecap:square;stroke-linejoin:bevel;stop-color:#000000"
       id="rect338"
       width="2741.1167"
       height="1598.9847"
       x="3.9062499e-07"
       y="-221.99237" /><g
       id="g43321"
       transform="matrix(3.0633521,0,0,3.1165793,701.64265,242.49087)"><g
         id="g827"
         transform="translate(2.8385939e-6,-7.8006527)"><path
           sodipodi:type="star"
           style="fill:#8ebf56;fill-opacity:1;stroke:none;stroke-width:4.90412;stroke-linecap:square;stroke-miterlimit:4;stroke-dasharray:none;stop-color:#000000"
           id="path1176"
           inkscape:flatsided="false"
           sodipodi:sides="3"
           sodipodi:cx="37.613907"
           sodipodi:cy="-55.547981"
           sodipodi:r1="16.733635"
           sodipodi:r2="33.46727"
           sodipodi:arg1="2.6179939"
           sodipodi:arg2="3.6651915"
           inkscape:rounded="0"
           inkscape:randomized="0"
           transform="matrix(3.032931,0,0,-3.032931,-14.080391,-27.803991)"
           d="m 23.122154,-47.181164 -14.4917519,-25.100454 28.9835049,2e-6 28.983507,2e-6 -14.491754,25.100451 -14.491756,25.100452 z" /><path
           sodipodi:type="star"
           style="fill:#64a725;fill-opacity:1;stroke:none;stroke-width:4.90412;stroke-linecap:square;stroke-miterlimit:4;stroke-dasharray:none;stop-color:#000000"
           id="path1056"
           inkscape:flatsided="false"
           sodipodi:sides="3"
           sodipodi:cx="37.613907"
           sodipodi:cy="-55.547981"
           sodipodi:r1="16.733635"
           sodipodi:r2="33.46727"
           sodipodi:arg1="2.6179939"
           sodipodi:arg2="3.6651915"
           inkscape:rounded="0"
           inkscape:randomized="0"
           transform="matrix(2.2894436,0,0,-2.2894436,35.433948,25.936481)"
           d="m 23.122154,-47.181164 -14.4917519,-25.100454 28.9835049,2e-6 28.983507,2e-6 -14.491754,25.100451 -14.491756,25.100452 z" /><path
           sodipodi:type="star"
           style="fill:#4d8b15;fill-opacity:1;stroke:none;stroke-width:4.90412;stroke-linecap:square;stroke-miterlimit:4;stroke-dasharray:none;stop-color:#000000"
           id="path1076"
           inkscape:flatsided="false"
           sodipodi:sides="3"
           sodipodi:cx="37.613907"
           sodipodi:cy="-55.547981"
           sodipodi:r1="16.733635"
           sodipodi:r2="33.46727"
           sodipodi:arg1="2.6179939"
           sodipodi:arg2="3.6651915"
           inkscape:rounded="0"
           inkscape:randomized="0"
           transform="matrix(1.4592752,0,0,-1.4592752,90.721014,85.942393)"
           d="m 23.122154,-47.181164 -14.4917519,-25.100454 28.9835049,2e-6 28.983507,2e-6 -14.491754,25.100451 -14.491756,25.100452 z" /></g><g
         aria-label="Dynamic
  DevOps
    Roadmap"
         id="text608"
         style="font-weight:500;font-size:49.9113px;line-height:1.05;font-family:Ubuntu;-inkscape-font-specification:'Ubuntu Medium';text-align:center;letter-spacing:0px;word-spacing:0px;fill:#0e232e;stroke-width:1.28356;stroke-linecap:square;stop-color:#000000"><path
           d="m 174.89539,71.475073 q -2.09627,0 -4.79148,-0.199645 -2.69521,-0.149734 -5.19078,-0.698758 V 36.986364 q 2.49557,-0.499113 5.2906,-0.698758 2.79503,-0.199645 4.89131,-0.199645 5.83962,0 10.23181,1.846718 4.3922,1.846718 6.83785,5.7398 2.44565,3.893081 2.44565,10.082082 0,5.939445 -2.44565,9.882438 -2.39574,3.942993 -6.83785,5.889533 -4.4421,1.946541 -10.43146,1.946541 z m 0.39929,-5.839622 q 6.189,0 9.18368,-3.144412 3.04459,-3.194323 3.04459,-8.734478 0,-5.739799 -2.94477,-8.784388 -2.89485,-3.04459 -9.08385,-3.04459 -1.24779,0 -2.1961,0.04991 -0.8984,0.04991 -1.54725,0.149734 v 23.358489 q 0.49911,0.04991 1.29769,0.09982 0.84849,0.04991 2.24601,0.04991 z"
           style="font-weight:bold;-inkscape-font-specification:'Ubuntu Bold'"
           id="path399" /><path
           d="m 202.59617,80.359285 q -1.64708,0 -3.04459,-0.349379 -1.34761,-0.299468 -2.14619,-0.648847 l 1.14796,-5.240687 q 0.94832,0.349379 1.84672,0.499113 0.94831,0.199645 1.89663,0.199645 1.49734,0 2.49556,-0.499113 0.99823,-0.449201 1.69699,-1.497339 0.74867,-0.998226 1.29769,-2.495565 -1.79681,-3.493791 -3.5437,-7.436784 -1.7469,-3.992904 -3.39397,-8.484921 -1.64707,-4.541928 -3.04459,-9.483147 h 6.93767 q 0.49912,2.046364 1.19787,4.442106 0.69876,2.345831 1.49734,4.841396 0.84849,2.445654 1.7469,4.841396 0.8984,2.395743 1.74689,4.442106 1.04814,-2.795033 1.99646,-5.939445 0.94831,-3.144412 1.7968,-6.388646 0.89841,-3.244235 1.64708,-6.238913 h 6.68811 q -1.39752,4.99113 -2.89486,9.632881 -1.49734,4.641751 -3.19432,8.934123 -1.64707,4.292372 -3.49379,8.43501 -1.39752,2.944767 -2.84494,4.791485 -1.39752,1.896629 -3.29415,2.745121 -1.89663,0.898404 -4.74157,0.898404 z"
           style="font-weight:bold;-inkscape-font-specification:'Ubuntu Bold'"
           id="path401" /><path
           d="M 227.40209,71.075783 V 45.820665 q 1.79681,-0.499113 4.64175,-0.998226 2.89486,-0.499113 6.23891,-0.499113 4.3922,0 6.78794,1.54725 2.44565,1.497339 3.39397,4.192549 0.99822,2.69521 0.99822,6.288824 v 14.723834 h -6.48847 V 57.250352 q 0,-2.645298 -0.49911,-4.24246 -0.4492,-1.647073 -1.54725,-2.345831 -1.09805,-0.74867 -3.0945,-0.74867 -1.14796,0 -2.24601,0.149734 -1.04814,0.09982 -1.69698,0.199645 v 20.813013 z"
           style="font-weight:bold;-inkscape-font-specification:'Ubuntu Bold'"
           id="path403" /><path
           d="m 265.68401,71.624807 q -3.24424,0 -5.68989,-0.798581 -2.44565,-0.848492 -3.84317,-2.69521 -1.34761,-1.896629 -1.34761,-5.041041 0,-2.994678 1.49734,-4.791485 1.54725,-1.796807 4.09273,-2.545477 2.54548,-0.79858 5.44033,-0.79858 1.44743,0 2.6453,0.149734 1.24778,0.149733 1.84672,0.349379 v -0.898404 q 0,-1.397516 -0.49911,-2.495565 -0.44921,-1.098048 -1.64708,-1.696984 -1.14796,-0.648847 -3.19432,-0.648847 -2.14619,0 -3.89308,0.299468 -1.7469,0.299468 -2.89486,0.748669 l -0.84849,-5.290597 q 1.19787,-0.399291 3.44388,-0.798581 2.29592,-0.449202 4.89131,-0.449202 4.14264,0 6.53838,1.297694 2.39574,1.297694 3.39397,3.643525 0.99822,2.345831 0.99822,5.540154 v 15.672149 q -1.44742,0.299467 -4.29237,0.748669 -2.79503,0.499113 -6.6382,0.499113 z m 0.49911,-5.090953 q 1.2977,0 2.39574,-0.04991 1.09805,-0.09982 1.7469,-0.249556 V 59.84574 q -0.4492,-0.149734 -1.44743,-0.249556 -0.94831,-0.149734 -1.99645,-0.149734 -1.44743,0 -2.74512,0.299468 -1.24778,0.249556 -2.04637,0.998226 -0.79858,0.748669 -0.79858,2.196097 0,1.996452 1.2977,2.795033 1.3476,0.79858 3.59361,0.79858 z"
           style="font-weight:bold;-inkscape-font-specification:'Ubuntu Bold'"
           id="path405" /><path
           d="M 283.70195,71.075783 V 45.820665 q 1.84672,-0.499113 4.64175,-0.998226 2.84495,-0.499113 5.88954,-0.499113 2.74512,0 4.49201,0.748669 1.79681,0.698758 2.94477,1.796807 0.94831,-0.698758 2.1961,-1.247783 1.24778,-0.549024 2.69521,-0.898403 1.44742,-0.39929 2.84494,-0.39929 4.14264,0 6.33874,1.54725 2.246,1.497339 3.04459,4.192549 0.84849,2.69521 0.84849,6.288824 v 14.723834 h -6.48847 V 57.250352 q 0,-2.595387 -0.4492,-4.192549 -0.39929,-1.647073 -1.39752,-2.395742 -0.99823,-0.74867 -2.74512,-0.74867 -0.74867,0 -1.59716,0.199645 -0.79858,0.199646 -1.49734,0.549025 -0.69876,0.299468 -1.19787,0.598935 0.39929,1.197872 0.49911,2.545477 0.14973,1.347605 0.14973,2.844944 v 14.424366 h -6.48847 V 57.250352 q 0,-2.595387 -0.4492,-4.192549 -0.39929,-1.647073 -1.39751,-2.395742 -0.99823,-0.74867 -2.79504,-0.74867 -0.69875,0 -1.39751,0.04991 -0.64885,0.04991 -1.19787,0.149733 -0.54903,0.04991 -0.99823,0.149734 v 20.813013 z"
           style="font-weight:bold;-inkscape-font-specification:'Ubuntu Bold'"
           id="path407" /><path
           d="M 326.72546,71.075783 V 44.922261 h 6.48847 v 26.153522 z m 3.24424,-30.29616 q -1.59716,0 -2.79503,-1.048137 -1.19788,-1.098049 -1.19788,-2.944767 0,-1.846718 1.19788,-2.894855 1.19787,-1.098049 2.79503,-1.098049 1.64707,0 2.79503,1.098049 1.19787,1.048137 1.19787,2.894855 0,1.846718 -1.19787,2.944767 -1.14796,1.048137 -2.79503,1.048137 z"
           style="font-weight:bold;-inkscape-font-specification:'Ubuntu Bold'"
           id="path409" /><path
           d="m 352.62942,71.72463 q -4.64175,0 -7.58651,-1.796807 -2.94477,-1.796807 -4.3922,-4.891308 -1.39751,-3.0945 -1.39751,-7.037493 0,-3.84317 1.59716,-6.937671 1.59716,-3.144412 4.54193,-4.99113 2.94476,-1.846718 7.03749,-1.846718 2.09627,0 3.84317,0.39929 1.79681,0.34938 3.29414,0.998226 l -1.39751,5.240687 q -1.04814,-0.39929 -2.29592,-0.698758 -1.24778,-0.299468 -2.89486,-0.299468 -3.5437,0 -5.2906,2.246009 -1.74689,2.196097 -1.74689,5.889533 0,2.495565 0.69876,4.342283 0.69876,1.796807 2.34583,2.795033 1.64707,0.948315 4.34228,0.948315 1.49734,0 2.99468,-0.299468 1.54725,-0.299468 2.69521,-0.798581 l 0.99823,5.390421 q -1.19788,0.549024 -3.14442,0.948314 -1.94654,0.399291 -4.24246,0.399291 z"
           style="font-weight:bold;-inkscape-font-specification:'Ubuntu Bold'"
           id="path411" /><path
           d="m 198.5533,123.88194 q -2.09628,0 -4.79149,-0.19965 -2.69521,-0.14973 -5.19077,-0.69876 V 89.393228 q 2.49556,-0.499113 5.2906,-0.698758 2.79503,-0.199646 4.8913,-0.199646 5.83963,0 10.23182,1.846718 4.39219,1.846719 6.83785,5.7398 2.44565,3.893081 2.44565,10.082078 0,5.93945 -2.44565,9.88244 -2.39574,3.943 -6.83785,5.88954 -4.44211,1.94654 -10.43146,1.94654 z m 0.39929,-5.83963 q 6.189,0 9.18368,-3.14441 3.04459,-3.19432 3.04459,-8.73448 0,-5.73979 -2.94477,-8.784384 -2.89485,-3.044589 -9.08386,-3.044589 -1.24778,0 -2.19609,0.04991 -0.89841,0.04991 -1.54725,0.149734 v 23.358488 q 0.49911,0.0499 1.29769,0.0998 0.84849,0.0499 2.24601,0.0499 z"
           style="font-weight:bold;-inkscape-font-specification:'Ubuntu Bold'"
           id="path413" /><path
           d="m 236.83527,124.13149 q -4.69166,0 -7.68634,-1.74689 -2.99468,-1.79681 -4.49202,-4.89131 -1.44742,-3.0945 -1.44742,-6.93767 0,-4.64175 1.7968,-7.68634 1.79681,-3.094502 4.59184,-4.641752 2.79504,-1.597162 5.93945,-1.597162 3.59361,0 6.189,1.497339 2.6453,1.497339 4.04281,4.442105 1.44743,2.94477 1.44743,7.38687 0,0.54903 -0.0499,1.24779 -0.0499,0.69875 -0.0998,1.24778 h -17.11958 q 0.19965,2.84494 2.14619,4.4421 1.99645,1.59717 5.54015,1.59717 2.1961,0 4.04282,-0.39929 1.89663,-0.39929 2.99468,-0.89841 l 0.94831,5.34051 q -1.09805,0.54903 -3.59361,1.04814 -2.44566,0.54902 -5.19078,0.54902 z m -6.88776,-16.27108 h 10.93058 q -0.0499,-1.54725 -0.64885,-2.84495 -0.54902,-1.3476 -1.69698,-2.14618 -1.09805,-0.79858 -2.94477,-0.79858 -1.79681,0 -2.99468,0.84849 -1.14796,0.79858 -1.79681,2.14619 -0.64884,1.29769 -0.84849,2.79503 z"
           style="font-weight:bold;-inkscape-font-specification:'Ubuntu Bold'"
           id="path415" /><path
           d="m 260.19377,123.48265 q -1.24779,-2.54548 -2.59539,-5.49025 -1.29769,-2.94476 -2.54548,-6.23891 -1.24778,-3.34406 -2.49556,-6.93767 -1.19787,-3.64353 -2.34583,-7.486695 h 6.93767 q 0.69876,2.795035 1.64707,6.139085 0.99823,3.34406 2.09628,6.5883 1.14796,3.19432 2.14618,5.68988 0.74867,-1.84671 1.54725,-4.14263 0.84849,-2.34583 1.64707,-4.79149 0.79859,-2.49556 1.49734,-4.94122 0.74867,-2.445651 1.24779,-4.541925 h 6.68811 q -1.09805,3.843165 -2.34583,7.486695 -1.19787,3.59361 -2.49557,6.93767 -1.24778,3.29415 -2.54547,6.23891 -1.24778,2.94477 -2.54548,5.49025 z"
           style="font-weight:bold;-inkscape-font-specification:'Ubuntu Bold'"
           id="path417" /><path
           d="m 295.93025,124.1814 q -4.64175,0 -8.53483,-2.04636 -3.84317,-2.04636 -6.13909,-6.03927 -2.29592,-4.04281 -2.29592,-9.93235 0,-4.4421 1.3476,-7.786158 1.34761,-3.393969 3.74335,-5.689888 2.39574,-2.29592 5.44033,-3.44388 3.04459,-1.14796 6.43856,-1.14796 4.69166,0 8.53483,2.046363 3.89308,2.046364 6.189,6.089179 2.29592,3.992904 2.29592,9.932344 0,5.88954 -2.29592,9.93235 -2.246,3.99291 -6.08917,6.03927 -3.84317,2.04636 -8.63466,2.04636 z m 0,-5.98935 q 3.14441,0 5.34051,-1.49734 2.24601,-1.49734 3.44388,-4.19255 1.19787,-2.69521 1.19787,-6.33874 0,-3.69343 -1.19787,-6.388642 -1.19787,-2.69521 -3.44388,-4.192549 -2.1961,-1.497339 -5.34051,-1.497339 -3.0945,0 -5.34051,1.54725 -2.1961,1.497339 -3.39397,4.19255 -1.19787,2.69521 -1.19787,6.33873 0,3.64353 1.19787,6.33874 1.19787,2.69521 3.39397,4.19255 2.24601,1.49734 5.34051,1.49734 z"
           style="font-weight:bold;-inkscape-font-specification:'Ubuntu Bold'"
           id="path419" /><path
           d="M 319.28877,132.71624 V 98.227528 q 1.24779,-0.39929 2.94477,-0.698758 1.69698,-0.349379 3.64352,-0.549025 1.94655,-0.249556 3.84318,-0.249556 4.19254,0 7.18722,1.696984 3.04459,1.647077 4.64175,4.741577 1.59716,3.04459 1.59716,7.23714 0,4.04281 -1.3476,7.0874 -1.29769,3.04459 -3.89308,4.79148 -2.54548,1.69699 -6.28883,1.69699 -1.74689,0 -3.24423,-0.39929 -1.44743,-0.34938 -2.59539,-0.94832 v 10.08209 z M 330.4689,118.4416 q 1.59717,0 2.69521,-0.49911 1.14796,-0.54902 1.89663,-1.54725 0.74867,-1.04814 1.09805,-2.49556 0.34938,-1.44743 0.34938,-3.34406 0,-2.49557 -0.79858,-4.34228 -0.79858,-1.84672 -2.34583,-2.84495 -1.49734,-1.04814 -3.69344,-1.04814 -1.29769,0 -2.29592,0.14974 -0.99822,0.0998 -1.59716,0.19964 v 14.47428 q 0.74867,0.49911 1.99645,0.8984 1.2977,0.39929 2.69521,0.39929 z"
           style="font-weight:bold;-inkscape-font-specification:'Ubuntu Bold'"
           id="path421" /><path
           d="m 356.17327,124.13149 q -3.44388,0 -5.68989,-0.59893 -2.1961,-0.54903 -3.04459,-0.94832 l 1.19787,-5.34051 q 1.54725,0.59894 3.44388,1.09805 1.94654,0.4492 4.14264,0.4492 2.1961,0 3.24423,-0.49911 1.09805,-0.49911 1.09805,-1.89663 0,-0.79858 -0.54902,-1.3476 -0.49912,-0.54903 -1.59716,-1.09805 -1.04814,-0.54903 -2.74513,-1.19787 -2.19609,-0.8485 -3.94299,-1.79681 -1.69698,-0.99823 -2.69521,-2.54548 -0.94831,-1.54725 -0.94831,-3.9929 0,-2.39574 1.19787,-4.09273 1.24778,-1.746893 3.44388,-2.695208 2.24601,-0.998226 5.34051,-0.998226 2.44565,0 4.54192,0.449202 2.09628,0.449202 3.24424,0.898403 l -1.19787,5.140869 q -1.09805,-0.39929 -2.6453,-0.79859 -1.49734,-0.39929 -3.5437,-0.39929 -1.84672,0 -2.89486,0.59894 -1.04814,0.54902 -1.04814,1.79681 0,0.74867 0.39929,1.29769 0.39929,0.54902 1.34761,1.04814 0.94831,0.49911 2.6453,1.14796 3.04459,1.09805 4.79148,2.24601 1.7469,1.14796 2.54548,2.6453 0.79858,1.49733 0.79858,3.74334 0,2.54548 -1.29769,4.24246 -1.24779,1.69699 -3.69344,2.59539 -2.44565,0.84849 -5.88953,0.84849 z"
           style="font-weight:bold;-inkscape-font-specification:'Ubuntu Bold'"
           id="path423" /><path
           d="M 212.22895,175.88951 V 141.85 q 2.39574,-0.49911 5.04104,-0.69876 2.6453,-0.24955 4.79148,-0.24955 7.63643,0 11.62933,2.79503 4.04282,2.74512 4.04282,8.43501 0,3.69344 -1.7469,5.98936 -1.74689,2.246 -4.94121,3.49379 0.99822,1.24778 2.14618,2.89485 1.19787,1.64708 2.34583,3.54371 1.19787,1.89662 2.29592,3.89308 1.09805,1.99645 1.99645,3.94299 h -7.58651 q -1.2977,-2.39574 -2.74512,-4.74157 -1.39752,-2.39575 -2.79504,-4.54193 -1.39751,-2.14619 -2.69521,-3.69344 -0.19964,0 -0.39929,0.0499 -0.14973,0 -0.29947,0 h -4.24246 v 12.92703 z m 6.83784,-18.36736 h 2.74513 q 2.99467,0 4.94121,-0.4492 1.99646,-0.49911 2.94477,-1.69699 0.99823,-1.19787 0.99823,-3.29414 0,-1.99645 -0.99823,-3.14441 -0.94831,-1.19787 -2.84494,-1.69699 -1.84672,-0.49911 -4.34229,-0.49911 -1.09805,0 -1.94654,0.0998 -0.84849,0.0499 -1.49734,0.0998 z"
           style="font-weight:bold;-inkscape-font-specification:'Ubuntu Bold'"
           id="path425" /><path
           d="m 254.92803,176.53836 q -3.74334,0 -6.6382,-1.69699 -2.84494,-1.74689 -4.44211,-4.84139 -1.59716,-3.0945 -1.59716,-7.23714 0,-4.14264 1.64708,-7.18723 1.64707,-3.04459 4.49201,-4.79148 2.89486,-1.7469 6.53838,-1.7469 3.69344,0 6.53838,1.7469 2.89486,1.69698 4.49202,4.79148 1.59716,3.04459 1.59716,7.18723 0,4.14264 -1.59716,7.23714 -1.54725,3.0945 -4.39219,4.84139 -2.79504,1.69699 -6.63821,1.69699 z m 0,-5.59007 q 1.89663,0 3.19433,-0.99823 1.3476,-0.99822 2.04636,-2.84494 0.74867,-1.84672 0.74867,-4.34228 0,-2.49557 -0.74867,-4.29237 -0.69876,-1.79681 -2.04636,-2.79504 -1.2977,-0.99822 -3.19433,-0.99822 -1.89663,0 -3.24423,0.99822 -1.34761,0.99823 -2.04636,2.79504 -0.69876,1.7968 -0.69876,4.29237 0,2.49556 0.69876,4.34228 0.69875,1.79681 2.04636,2.84494 1.3476,0.99823 3.24423,0.99823 z"
           style="font-weight:bold;-inkscape-font-specification:'Ubuntu Bold'"
           id="path427" /><path
           d="m 282.72859,176.43853 q -3.24423,0 -5.68988,-0.79858 -2.44566,-0.84849 -3.84317,-2.69521 -1.34761,-1.89663 -1.34761,-5.04104 0,-2.99468 1.49734,-4.79148 1.54725,-1.79681 4.09273,-2.54548 2.54547,-0.79858 5.44033,-0.79858 1.44743,0 2.6453,0.14973 1.24778,0.14974 1.84672,0.34938 v -0.8984 q 0,-1.39752 -0.49912,-2.49557 -0.4492,-1.09804 -1.64707,-1.69698 -1.14796,-0.64885 -3.19432,-0.64885 -2.14619,0 -3.89309,0.29947 -1.74689,0.29947 -2.89485,0.74867 l -0.84849,-5.2906 q 1.19787,-0.39929 3.44388,-0.79858 2.29592,-0.4492 4.8913,-0.4492 4.14264,0 6.53838,1.29769 2.39575,1.2977 3.39397,3.64353 0.99823,2.34583 0.99823,5.54015 v 15.67215 q -1.44743,0.29947 -4.29237,0.74867 -2.79504,0.49911 -6.63821,0.49911 z m 0.49912,-5.09095 q 1.29769,0 2.39574,-0.0499 1.09805,-0.0998 1.7469,-0.24956 v -6.38864 q -0.44921,-0.14974 -1.44743,-0.24956 -0.94832,-0.14973 -1.99645,-0.14973 -1.44743,0 -2.74513,0.29946 -1.24778,0.24956 -2.04636,0.99823 -0.79858,0.74867 -0.79858,2.1961 0,1.99645 1.29769,2.79503 1.34761,0.79858 3.59362,0.79858 z"
           style="font-weight:bold;-inkscape-font-specification:'Ubuntu Bold'"
           id="path429" /><path
           d="m 312.87498,176.53836 q -4.19255,0 -7.23714,-1.64708 -2.99467,-1.64707 -4.64175,-4.69166 -1.59716,-3.0945 -1.59716,-7.28705 0,-4.19255 1.39752,-7.28705 1.39751,-3.0945 3.9929,-4.74157 2.6453,-1.69699 6.33874,-1.69699 1.74689,0 3.0945,0.39929 1.39751,0.39929 2.59539,0.94832 v -12.32809 l 6.48846,-1.04814 v 37.88268 q -1.19787,0.39929 -2.94476,0.74867 -1.7469,0.29946 -3.69344,0.49911 -1.89663,0.24956 -3.79326,0.24956 z m 0.0499,-5.59007 q 1.2977,0 2.29592,-0.0998 0.99823,-0.14974 1.59717,-0.24956 v -14.52419 q -0.74867,-0.54902 -2.04637,-0.94831 -1.24778,-0.39929 -2.69521,-0.39929 -1.54725,0 -2.69521,0.54902 -1.09805,0.49912 -1.84672,1.54725 -0.74867,0.99823 -1.09804,2.49557 -0.34938,1.44743 -0.34938,3.34405 0,2.54548 0.79858,4.3922 0.79858,1.84672 2.34583,2.89485 1.54725,0.99823 3.69343,0.99823 z"
           style="font-weight:bold;-inkscape-font-specification:'Ubuntu Bold'"
           id="path431" /><path
           d="m 330.64345,175.88951 v -25.25512 q 1.84672,-0.49911 4.64175,-0.99822 2.84494,-0.49912 5.88953,-0.49912 2.74512,0 4.49202,0.74867 1.79681,0.69876 2.94477,1.79681 0.94831,-0.69876 2.19609,-1.24778 1.24779,-0.54903 2.69521,-0.89841 1.44743,-0.39929 2.84495,-0.39929 4.14264,0 6.33873,1.54725 2.24601,1.49734 3.04459,4.19255 0.84849,2.69521 0.84849,6.28883 v 14.72383 h -6.48846 v -13.82543 q 0,-2.59539 -0.44921,-4.19255 -0.39929,-1.64707 -1.39751,-2.39574 -0.99823,-0.74867 -2.74512,-0.74867 -0.74867,0 -1.59717,0.19964 -0.79858,0.19965 -1.49733,0.54903 -0.69876,0.29947 -1.19788,0.59893 0.39929,1.19787 0.49912,2.54548 0.14973,1.3476 0.14973,2.84494 v 14.42437 h -6.48847 v -13.82543 q 0,-2.59539 -0.4492,-4.19255 -0.39929,-1.64707 -1.39752,-2.39574 -0.99822,-0.74867 -2.79503,-0.74867 -0.69876,0 -1.39752,0.0499 -0.64884,0.0499 -1.19787,0.14973 -0.54902,0.0499 -0.99822,0.14974 v 20.81301 z"
           style="font-weight:bold;-inkscape-font-specification:'Ubuntu Bold'"
           id="path433" /><path
           d="m 382.75082,176.43853 q -3.24424,0 -5.68989,-0.79858 -2.44565,-0.84849 -3.84317,-2.69521 -1.3476,-1.89663 -1.3476,-5.04104 0,-2.99468 1.49733,-4.79148 1.54725,-1.79681 4.09273,-2.54548 2.54548,-0.79858 5.44033,-0.79858 1.44743,0 2.6453,0.14973 1.24778,0.14974 1.84672,0.34938 v -0.8984 q 0,-1.39752 -0.49911,-2.49557 -0.4492,-1.09804 -1.64708,-1.69698 -1.14796,-0.64885 -3.19432,-0.64885 -2.14619,0 -3.89308,0.29947 -1.7469,0.29947 -2.89486,0.74867 l -0.84849,-5.2906 q 1.19787,-0.39929 3.44388,-0.79858 2.29592,-0.4492 4.89131,-0.4492 4.14264,0 6.53838,1.29769 2.39574,1.2977 3.39397,3.64353 0.99822,2.34583 0.99822,5.54015 v 15.67215 q -1.44742,0.29947 -4.29237,0.74867 -2.79503,0.49911 -6.6382,0.49911 z m 0.49911,-5.09095 q 1.2977,0 2.39574,-0.0499 1.09805,-0.0998 1.7469,-0.24956 v -6.38864 q -0.4492,-0.14974 -1.44743,-0.24956 -0.94831,-0.14973 -1.99645,-0.14973 -1.44743,0 -2.74512,0.29946 -1.24778,0.24956 -2.04636,0.99823 -0.79859,0.74867 -0.79859,2.1961 0,1.99645 1.2977,2.79503 1.3476,0.79858 3.59361,0.79858 z"
           style="font-weight:bold;-inkscape-font-specification:'Ubuntu Bold'"
           id="path435" /><path
           d="m 400.76877,185.1231 v -34.48871 q 1.24778,-0.39929 2.94477,-0.69876 1.69698,-0.34938 3.64352,-0.54902 1.94654,-0.24956 3.84317,-0.24956 4.19255,0 7.18723,1.69699 3.04459,1.64707 4.64175,4.74157 1.59716,3.04459 1.59716,7.23714 0,4.04281 -1.3476,7.0874 -1.2977,3.04459 -3.89309,4.79149 -2.54547,1.69698 -6.28882,1.69698 -1.7469,0 -3.24423,-0.39929 -1.44743,-0.34938 -2.59539,-0.94831 v 10.08208 z m 11.18013,-14.27463 q 1.59716,0 2.69521,-0.49911 1.14796,-0.54903 1.89663,-1.54726 0.74867,-1.04813 1.09805,-2.49556 0.34938,-1.44743 0.34938,-3.34406 0,-2.49556 -0.79858,-4.34228 -0.79858,-1.84672 -2.34583,-2.84494 -1.49734,-1.04814 -3.69344,-1.04814 -1.29769,0 -2.29592,0.14973 -0.99823,0.0998 -1.59716,0.19965 v 14.47427 q 0.74867,0.49912 1.99645,0.89841 1.29769,0.39929 2.69521,0.39929 z"
           style="font-weight:bold;-inkscape-font-specification:'Ubuntu Bold'"
           id="path437" /></g></g></g></svg>
